<svg width="203" height="20" viewBox="0 0 203 20" fill="#212121" xmlns="http://www.w3.org/2000/svg">
<path d="M9.774 14.5H12.438L7.92 1.918H4.986L0.468 14.5H3.114L3.942 12.106H8.946L9.774 14.5ZM8.262 10.09H4.626L6.444 4.834L8.262 10.09ZM14.1268 14.5H16.6468V1.18H14.1268V14.5ZM19.1365 14.5H21.6565V1.18H19.1365V14.5ZM36.6614 1.918V10.558L30.9554 1.918H28.4354V14.5H30.9554V5.878L36.6614 14.5H39.1814V1.918H36.6614ZM45.9557 6.436C47.2517 6.436 48.2957 7.264 48.3317 8.578H43.5977C43.7957 7.21 44.7497 6.436 45.9557 6.436ZM50.6897 11.368H47.9717C47.6477 12.034 47.0537 12.574 45.9737 12.574C44.7137 12.574 43.7057 11.746 43.5797 10.27H50.8697C50.9237 9.946 50.9417 9.622 50.9417 9.298C50.9417 6.328 48.9077 4.366 46.0277 4.366C43.0757 4.366 41.0237 6.364 41.0237 9.514C41.0237 12.646 43.1297 14.662 46.0277 14.662C48.4937 14.662 50.1497 13.204 50.6897 11.368ZM52.7811 14.5H55.3011V4.528H52.7811V14.5ZM54.0591 3.34C54.9411 3.34 55.6071 2.692 55.6071 1.864C55.6071 1.036 54.9411 0.387999 54.0591 0.387999C53.1591 0.387999 52.5111 1.036 52.5111 1.864C52.5111 2.692 53.1591 3.34 54.0591 3.34ZM57.1428 9.478C57.1428 12.592 59.1588 14.662 61.6968 14.662C63.2628 14.662 64.3968 13.888 64.9908 13.024V14.572C64.9908 16.426 63.9108 17.218 62.5248 17.218C61.2648 17.218 60.3288 16.624 60.0768 15.724H57.5748C57.8268 18.01 59.7888 19.414 62.5968 19.414C65.8728 19.414 67.5288 17.272 67.5288 14.572V4.528H64.9908V5.95C64.3968 5.086 63.2628 4.366 61.6968 4.366C59.1588 4.366 57.1428 6.364 57.1428 9.478ZM64.9908 9.514C64.9908 11.404 63.7308 12.448 62.3448 12.448C60.9948 12.448 59.7168 11.368 59.7168 9.478C59.7168 7.588 60.9948 6.58 62.3448 6.58C63.7308 6.58 64.9908 7.624 64.9908 9.514ZM69.99 14.5H72.51V8.992C72.51 7.39 73.392 6.526 74.76 6.526C76.092 6.526 76.974 7.39 76.974 8.992V14.5H79.494V8.65C79.494 5.896 77.856 4.384 75.606 4.384C74.274 4.384 73.158 4.924 72.51 5.77V1.18H69.99V14.5ZM84.4104 5.986V1.18H81.8904V14.5H84.4104V13.078C85.0224 13.942 86.1384 14.662 87.7044 14.662C90.2604 14.662 92.2584 12.592 92.2584 9.478C92.2584 6.364 90.2604 4.366 87.7044 4.366C86.1924 4.366 85.0224 5.068 84.4104 5.986ZM89.6844 9.478C89.6844 11.368 88.4064 12.448 87.0384 12.448C85.6884 12.448 84.4104 11.404 84.4104 9.514C84.4104 7.624 85.6884 6.58 87.0384 6.58C88.4064 6.58 89.6844 7.588 89.6844 9.478ZM103.72 9.514C103.72 6.364 101.47 4.366 98.5897 4.366C95.7097 4.366 93.4597 6.364 93.4597 9.514C93.4597 12.646 95.6377 14.662 98.5177 14.662C101.416 14.662 103.72 12.646 103.72 9.514ZM96.0157 9.514C96.0157 7.516 97.2217 6.562 98.5537 6.562C99.8857 6.562 101.128 7.516 101.128 9.514C101.128 11.494 99.8497 12.466 98.5177 12.466C97.1677 12.466 96.0157 11.494 96.0157 9.514ZM108.088 9.532C108.088 7.606 108.988 7.03 110.482 7.03H111.148V4.384C109.762 4.384 108.718 5.05 108.088 6.076V4.528H105.568V14.5H108.088V9.532ZM112.846 14.5H115.366V8.992C115.366 7.39 116.248 6.526 117.616 6.526C118.948 6.526 119.83 7.39 119.83 8.992V14.5H122.35V8.65C122.35 5.896 120.712 4.384 118.462 4.384C117.13 4.384 116.014 4.924 115.366 5.77V1.18H112.846V14.5ZM134.376 9.514C134.376 6.364 132.126 4.366 129.246 4.366C126.366 4.366 124.116 6.364 124.116 9.514C124.116 12.646 126.294 14.662 129.174 14.662C132.072 14.662 134.376 12.646 134.376 9.514ZM126.672 9.514C126.672 7.516 127.878 6.562 129.21 6.562C130.542 6.562 131.784 7.516 131.784 9.514C131.784 11.494 130.506 12.466 129.174 12.466C127.824 12.466 126.672 11.494 126.672 9.514ZM145.854 9.514C145.854 6.364 143.604 4.366 140.724 4.366C137.844 4.366 135.594 6.364 135.594 9.514C135.594 12.646 137.772 14.662 140.652 14.662C143.55 14.662 145.854 12.646 145.854 9.514ZM138.15 9.514C138.15 7.516 139.356 6.562 140.688 6.562C142.02 6.562 143.262 7.516 143.262 9.514C143.262 11.494 141.984 12.466 140.652 12.466C139.302 12.466 138.15 11.494 138.15 9.514ZM147.055 9.478C147.055 12.592 149.071 14.662 151.609 14.662C153.175 14.662 154.291 13.942 154.885 13.024V14.5H157.441V1.18H154.885V5.914C154.201 4.978 152.941 4.366 151.627 4.366C149.071 4.366 147.055 6.364 147.055 9.478ZM154.903 9.514C154.903 11.404 153.643 12.448 152.257 12.448C150.907 12.448 149.629 11.368 149.629 9.478C149.629 7.588 150.907 6.58 152.257 6.58C153.643 6.58 154.903 7.624 154.903 9.514ZM167.642 11.656C167.57 8.002 162.044 9.136 162.044 7.318C162.044 6.742 162.53 6.364 163.466 6.364C164.456 6.364 165.068 6.886 165.14 7.66H167.552C167.408 5.68 165.95 4.366 163.538 4.366C161.072 4.366 159.596 5.698 159.596 7.354C159.596 11.008 165.23 9.874 165.23 11.656C165.23 12.232 164.69 12.682 163.7 12.682C162.692 12.682 161.99 12.106 161.9 11.35H159.362C159.47 13.204 161.216 14.662 163.718 14.662C166.148 14.662 167.642 13.366 167.642 11.656Z" fill="#212121"/>
<path d="M195 -6.99382e-07L193.59 1.41L199.17 7L179 7L179 9L199.17 9L193.58 14.58L195 16L203 8L195 -6.99382e-07Z" fill="#212121"/>
</svg>
