<svg width="11" height="7" viewBox="0 0 11 7" fill="none" xmlns="http://www.w3.org/2000/svg">
<path d="M5.35091 6.10874C5.0761 6.10905 4.81447 6.0013 4.63286 5.81302L0.558377 1.585C0.29054 1.29361 0.326505 0.860309 0.639381 0.609085C0.952257 0.357862 1.4276 0.380605 1.71 0.660309L5.27283 4.35756C5.29254 4.37809 5.321 4.38986 5.35091 4.38986C5.38081 4.38986 5.40927 4.37809 5.42898 4.35756L8.99182 0.660309C9.1707 0.465689 9.45103 0.374788 9.72431 0.422782C9.9976 0.470775 10.221 0.650133 10.308 0.891451C10.395 1.13277 10.332 1.39819 10.1434 1.585L6.0702 5.81151C5.88828 6.00024 5.62629 6.10851 5.35091 6.10874Z" fill="black"/>
</svg>
