<svg width="36" height="24" viewBox="0 0 36 24" fill="none" xmlns="http://www.w3.org/2000/svg">
<path d="M12.8779 22C18.4008 22 22.8779 17.5228 22.8779 12C22.8779 6.47715 18.4008 2 12.8779 2C7.35508 2 2.87793 6.47715 2.87793 12C2.87793 17.5228 7.35508 22 12.8779 22Z" stroke="current" stroke-width="1.5" stroke-linecap="round" stroke-linejoin="round"/>
<path d="M2.87793 12H22.8779" stroke="current" stroke-width="1.5" stroke-linecap="round" stroke-linejoin="round"/>
<path d="M12.8776 21.7317C15.1788 21.7317 17.0443 17.3747 17.0443 12.0001C17.0443 6.62552 15.1788 2.26855 12.8776 2.26855C10.5764 2.26855 8.71094 6.62552 8.71094 12.0001C8.71094 17.3747 10.5764 21.7317 12.8776 21.7317Z" stroke="current" stroke-width="1.5" stroke-linecap="round" stroke-linejoin="round"/>
<path d="M28.8779 11L31.8779 14L34.8779 11" stroke="current" stroke-width="1.5"/>
</svg>
