<svg width="24" height="24" viewBox="0 0 24 24" fill="none" xmlns="http://www.w3.org/2000/svg">
<path d="M4 7.38462V2H22V15.2222C22 15.4285 21.921 15.6263 21.7803 15.7722C21.6397 15.9181 21.4489 16 21.25 16H12.5" stroke="current" stroke-width="1.5" stroke-linecap="round" stroke-linejoin="round"/>
<path d="M22 2L13 10.5556L4 2" stroke="current" stroke-width="1.5" stroke-linecap="round" stroke-linejoin="round"/>
<path d="M6.01151 14.7628C6.73696 16.0062 7.85871 16.9701 9.19708 17.5002C9.29493 17.538 9.40096 17.5498 9.50473 17.5342C9.6085 17.5187 9.70643 17.4764 9.78888 17.4115L11.5989 16.0028C11.6789 15.9405 11.7733 15.8991 11.8733 15.8825C11.9734 15.8658 12.076 15.8744 12.1719 15.9074L15.8443 17.172C15.969 17.2145 16.0765 17.2964 16.1507 17.4053C16.2248 17.5142 16.2615 17.6443 16.2553 17.7759C16.2074 18.6648 15.8372 19.5057 15.2139 20.1412C14.5906 20.7767 13.7571 21.1632 12.8694 21.2284C10.1275 21.4296 7.41799 20.5334 5.33692 18.7369C3.25584 16.9404 1.97366 14.3907 1.77244 11.6489C1.70734 10.7611 1.96805 9.8801 2.50576 9.17074C3.04347 8.46138 3.82131 7.97233 4.69363 7.79518C4.82293 7.76982 4.95696 7.78716 5.07554 7.8446C5.19412 7.90204 5.29083 7.99646 5.35108 8.11364L7.1398 11.565C7.18607 11.6543 7.20954 11.7537 7.20813 11.8542C7.20672 11.9547 7.18046 12.0534 7.1317 12.1413L6.00887 14.1664C5.95769 14.2576 5.93103 14.3604 5.93149 14.465C5.93196 14.5695 5.95952 14.6721 6.01151 14.7628V14.7628Z" stroke="current" stroke-width="1.5" stroke-linecap="round" stroke-linejoin="round"/>
</svg>
