<svg width="35" height="27" viewBox="0 0 35 24" fill="none" xmlns="http://www.w3.org/2000/svg">
<path d="M12 22C17.5228 22 22 17.5228 22 12C22 6.47715 17.5228 2 12 2C6.47715 2 2 6.47715 2 12C2 17.5228 6.47715 22 12 22Z" stroke="white" stroke-width="1.5" stroke-linecap="round" stroke-linejoin="round"/>
<path d="M2 12H22" stroke="white" stroke-width="1.5" stroke-linecap="round" stroke-linejoin="round"/>
<path d="M11.9999 21.7315C14.3011 21.7315 16.1666 17.3746 16.1666 12C16.1666 6.6254 14.3011 2.26843 11.9999 2.26843C9.69873 2.26843 7.83325 6.6254 7.83325 12C7.83325 17.3746 9.69873 21.7315 11.9999 21.7315Z" stroke="white" stroke-width="1.5" stroke-linecap="round" stroke-linejoin="round"/>
<path d="M28 11L31 14L34 11" stroke="white" stroke-width="1.5"/>
</svg>
