<svg width="176" height="50" viewBox="0 0 176 50" fill="white" xmlns="http://www.w3.org/2000/svg">
<path d="M46.4699 13.4146L46.4057 10.6547L43.7741 12.1951L40.3723 14.249L35.8152 10.1412L34.018 8.4724L31.9641 9.69191L30.2311 10.7189L27.407 12.4519L28.1772 13.1579L30.2953 15.0834L33.7613 18.2285L30.3595 20.2824L27.7279 21.887L27.5353 21.6945L25.0321 19.3838L19.5764 14.4416L16.5597 11.7458L12.0668 7.70218L12.1951 13.4788C4.81387 17.1374 0 23.1065 0 29.846C0 40.9499 13.2221 50 29.4609 50C45.6997 50 58.9218 40.9499 58.9218 29.846C58.8576 23.0424 53.9795 17.0732 46.4699 13.4146ZM29.4609 46.4698C15.1476 46.4698 3.53017 38.9602 3.53017 29.7818C3.53017 24.8395 6.93197 20.3466 12.3235 17.2657L12.5161 27.1502L28.2414 41.3992L34.2748 37.7407L34.018 28.3055L34.4031 28.0488L40.7574 33.8254L46.7908 30.1669L46.5341 17.3299C51.9256 20.4108 55.3916 24.8395 55.3916 29.846C55.3916 39.0244 43.7741 46.4698 29.4609 46.4698Z" fill="white"/>
<path d="M24.647 0L24.8395 8.27984L30.1669 5.00642L24.647 0Z" fill="white"/>
<path d="M71.4377 37.5481H72.208L73.4917 42.362L74.9037 37.5481H75.6739L77.086 42.362L78.4339 37.5481H79.1399L77.4711 43.3247H76.7009L75.2888 38.4467L73.8768 43.3247H73.1066L71.4377 37.5481Z" fill="white"/>
<path d="M79.9102 37.5481H80.6162V39.9871H83.6971V37.5481H84.4031V43.3247H83.6971V40.629H80.6162V43.3247H79.9102V37.5481Z" fill="white"/>
<path d="M85.8152 37.5481H89.4737V38.1899H86.5212V39.9871H89.2812V40.629H86.5212V42.6829H89.6021V43.3247H85.8152V37.5481Z" fill="white"/>
<path d="M90.6291 37.5481H92.1054C92.3621 37.5481 92.683 37.5481 92.9398 37.6123C93.1965 37.6765 93.4533 37.7407 93.6458 37.8048C93.8384 37.9332 94.0309 38.0616 94.1593 38.2541C94.2877 38.4467 94.3518 38.7676 94.3518 39.0885C94.3518 39.5378 94.2235 39.8587 93.9667 40.1155C93.71 40.3722 93.3891 40.5648 92.8756 40.629L94.5444 43.2605H93.71L92.1696 40.6932H91.271V43.2605H90.5649V37.5481H90.6291ZM91.3352 40.1155H91.977C92.1696 40.1155 92.3621 40.1155 92.5547 40.1155C92.7472 40.1155 92.9398 40.0513 93.1323 39.9871C93.3249 39.9229 93.4533 39.8587 93.5816 39.7304C93.71 39.602 93.7742 39.4095 93.7742 39.1527C93.7742 38.9602 93.71 38.7676 93.6458 38.6392C93.5816 38.5109 93.4533 38.4467 93.3249 38.3183C93.1965 38.2541 93.0681 38.1899 92.8756 38.1899C92.683 38.1899 92.5547 38.1258 92.3621 38.1258H91.3993V40.1155H91.3352Z" fill="white"/>
<path d="M95.6355 37.5481H99.294V38.1899H96.3415V39.9871H99.1015V40.629H96.3415V42.6829H99.4224V43.3247H95.6355V37.5481Z" fill="white"/>
<path d="M106.804 38.7677C106.611 38.5109 106.419 38.3826 106.162 38.2542C105.905 38.1258 105.648 38.0616 105.392 38.0616C105.071 38.0616 104.75 38.1258 104.493 38.2542C104.236 38.3826 103.98 38.5751 103.787 38.7677C103.594 38.9602 103.466 39.217 103.338 39.5379C103.209 39.8588 103.145 40.1156 103.145 40.4365C103.145 40.7574 103.209 41.0783 103.338 41.3993C103.466 41.7202 103.594 41.9127 103.787 42.1695C103.98 42.362 104.236 42.5546 104.493 42.683C104.75 42.8113 105.071 42.8755 105.392 42.8755C105.713 42.8755 106.033 42.8113 106.354 42.683C106.611 42.5546 106.868 42.362 107.06 42.1053L107.574 42.5546C107.317 42.8755 106.996 43.1323 106.611 43.3248C106.226 43.5174 105.841 43.5816 105.392 43.5816C105.006 43.5816 104.621 43.5174 104.236 43.3248C103.851 43.1964 103.594 42.9397 103.273 42.683C103.017 42.4262 102.824 42.1053 102.632 41.7202C102.503 41.3351 102.439 40.95 102.439 40.5007C102.439 40.0514 102.503 39.6663 102.632 39.2812C102.76 38.8961 102.953 38.5751 103.209 38.3184C103.466 38.0616 103.787 37.8049 104.108 37.6765C104.429 37.5482 104.878 37.4198 105.263 37.4198C105.648 37.4198 106.033 37.484 106.419 37.6124C106.804 37.7407 107.06 37.9975 107.317 38.3184L106.804 38.7677Z" fill="white"/>
<path d="M110.334 37.5481H110.976L113.415 43.3247H112.645L112.067 41.9127H109.179L108.601 43.3247H107.831L110.334 37.5481ZM110.655 38.4467L109.435 41.2708H111.81L110.655 38.4467Z" fill="white"/>
<path d="M114.185 37.5481H115.019L118.357 42.362V37.5481H119.063V43.3247H118.228L114.891 38.5109V43.3247H114.185V37.5481Z" fill="white"/>
<path d="M122.144 37.5481H122.914L124.198 42.362L125.61 37.5481H126.38L127.792 42.362L129.14 37.5481H129.846L128.177 43.3247H127.407L125.995 38.4467L124.583 43.3247H123.813L122.144 37.5481Z" fill="white"/>
<path d="M130.681 37.5481H134.339V38.1899H131.387V39.9871H134.147V40.629H131.387V42.6829H134.467V43.3247H130.681V37.5481Z" fill="white"/>
<path d="M141.656 38.1899H139.73V43.3247H139.024V38.1899H137.099V37.5481H141.592V38.1899H141.656Z" fill="white"/>
<path d="M143.582 37.5481H144.223L146.662 43.3247H145.892L145.315 41.9127H142.426L141.849 43.3247H141.078L143.582 37.5481ZM143.903 38.4467L142.683 41.2708H145.058L143.903 38.4467Z" fill="white"/>
<path d="M147.433 37.5481H148.139V40.0513H148.267L150.899 37.5481H151.861L149.037 40.1797L152.054 43.3247H151.027L148.267 40.3722H148.139V43.3247H147.433V37.5481Z" fill="white"/>
<path d="M152.568 37.5481H156.226V38.1899H153.274V39.9871H156.034V40.629H153.274V42.6829H156.354V43.3247H152.568V37.5481Z" fill="white"/>
<path d="M161.04 40.8215L158.858 37.5481H159.756L161.361 40.1797L163.03 37.5481H163.864L161.682 40.8215V43.3247H160.976V40.8215H161.04Z" fill="white"/>
<path d="M167.202 43.4532C166.752 43.4532 166.367 43.389 165.982 43.1964C165.597 43.0039 165.276 42.8113 165.019 42.5546C164.763 42.2978 164.57 41.9769 164.377 41.5918C164.249 41.2067 164.185 40.8216 164.185 40.3723C164.185 39.923 164.249 39.5379 164.377 39.1528C164.506 38.7677 164.763 38.4467 165.019 38.19C165.276 37.9333 165.597 37.7407 165.982 37.5482C166.367 37.4198 166.752 37.2914 167.202 37.2914C167.651 37.2914 168.036 37.3556 168.421 37.5482C168.806 37.6765 169.127 37.9333 169.384 38.19C169.641 38.4467 169.833 38.7677 170.026 39.1528C170.154 39.5379 170.218 39.923 170.218 40.3723C170.218 40.8216 170.154 41.2067 170.026 41.5918C169.897 41.9769 169.641 42.2978 169.384 42.5546C169.127 42.8113 168.806 43.0039 168.421 43.1964C168.036 43.389 167.651 43.4532 167.202 43.4532ZM167.202 42.8113C167.523 42.8113 167.843 42.7471 168.1 42.6188C168.357 42.4904 168.614 42.2978 168.806 42.1053C168.999 41.9127 169.191 41.656 169.256 41.3351C169.448 41.0783 169.448 40.7574 169.448 40.4365C169.448 40.1155 169.384 39.7946 169.256 39.4737C169.127 39.1528 168.999 38.9602 168.806 38.7035C168.614 38.5109 168.357 38.3184 168.1 38.19C167.843 38.0616 167.523 37.9974 167.202 37.9974C166.881 37.9974 166.56 38.0616 166.303 38.19C166.046 38.3184 165.79 38.5109 165.597 38.7035C165.404 38.896 165.212 39.1528 165.148 39.4737C165.019 39.7946 164.955 40.0514 164.955 40.4365C164.955 40.7574 165.019 41.0783 165.148 41.3992C165.276 41.7202 165.404 41.9127 165.597 42.1695C165.79 42.362 166.046 42.5546 166.303 42.6829C166.56 42.7471 166.881 42.8113 167.202 42.8113Z" fill="white"/>
<path d="M175.61 41.1424C175.61 41.4634 175.546 41.7843 175.482 42.041C175.417 42.2978 175.289 42.5545 175.096 42.8112C174.904 43.0038 174.711 43.1964 174.455 43.3247C174.198 43.4531 173.813 43.5173 173.428 43.5173C173.043 43.5173 172.722 43.4531 172.401 43.3247C172.08 43.1964 171.887 43.0038 171.759 42.8112C171.566 42.6187 171.438 42.362 171.374 42.041C171.31 41.7843 171.245 41.4634 171.245 41.1424V37.5481H171.951V41.0141C171.951 41.2708 171.951 41.4634 172.016 41.7201C172.08 41.9127 172.144 42.1052 172.272 42.2978C172.401 42.4903 172.529 42.6187 172.722 42.6829C172.914 42.8112 173.171 42.8112 173.428 42.8112C173.684 42.8112 173.941 42.7471 174.134 42.6829C174.326 42.5545 174.455 42.4261 174.583 42.2978C174.711 42.1052 174.776 41.9127 174.84 41.7201C174.904 41.5276 174.904 41.2708 174.904 41.0141V37.5481H175.61V41.1424Z" fill="white"/>
<path d="M81.3223 22.0796H74.8396V16.1746H71.9513V30.7445H74.8396V24.8395H81.3223V30.7445H84.2106V16.1746H81.3223V22.0796Z" fill="white"/>
<path d="M90.8216 24.8395H97.1117V22.0796H90.8216V18.9987H97.8819V16.1746H87.9974V30.7445H98.2028V27.9846H90.8216V24.8395Z" fill="white"/>
<path d="M104.044 16.1746H101.155V30.7445H110.912V27.9846H104.044V16.1746Z" fill="white"/>
<path d="M116.752 16.1746H113.864V30.7445H116.752V16.1746Z" fill="white"/>
<path d="M130.488 21.1168C130.488 20.0898 130.295 19.2554 129.846 18.4852C129.397 17.7792 128.755 17.2015 127.921 16.7522C127.086 16.3671 126.059 16.1746 124.84 16.1746H120.411V30.7445H123.299V26.1232H125.353C126.316 26.1232 127.086 25.9949 127.728 25.6739C128.37 25.353 128.883 24.9679 129.268 24.5186C129.654 24.0693 129.91 23.4916 130.103 22.914C130.424 22.2721 130.488 21.6945 130.488 21.1168ZM127.535 21.8228C127.471 22.0796 127.343 22.3363 127.15 22.5289C126.958 22.7856 126.765 22.9782 126.444 23.1065C126.123 23.2349 125.802 23.3633 125.353 23.3633H123.299V18.9987H125.353C125.867 18.9987 126.252 19.0629 126.573 19.2554C126.894 19.448 127.086 19.6405 127.214 19.8973C127.343 20.154 127.471 20.4108 127.471 20.6675C127.535 20.9242 127.535 21.1168 127.535 21.2452C127.6 21.3735 127.6 21.5661 127.535 21.8228Z" fill="white"/>
<path d="M136.521 15.5969L129.974 30.7445H132.798L133.954 27.9203H138.768L139.923 30.7445H143.261L136.714 15.5969H136.521ZM134.981 25.4813L136.457 21.9512L137.869 25.4813H134.981Z" fill="white"/>
<path d="M156.419 21.0526C156.098 20.154 155.648 19.3196 155.071 18.6136C154.429 17.9075 153.594 17.3299 152.568 16.8806C151.541 16.4313 150.321 16.2387 148.845 16.2387H144.48V30.8087H149.551C150.514 30.8087 151.476 30.6161 152.375 30.2952C153.274 29.9743 154.044 29.525 154.686 28.8832C155.327 28.2413 155.905 27.5353 156.29 26.6367C156.675 25.8023 156.868 24.7753 156.868 23.7484C156.868 22.8498 156.675 21.9512 156.419 21.0526ZM153.53 25.4814C153.274 26.059 152.953 26.5083 152.568 26.8934C152.118 27.2785 151.605 27.5353 151.027 27.7278C150.449 27.9204 149.743 27.9846 149.037 27.9846H147.304V18.9345H149.615C149.936 18.9345 150.321 18.9987 150.835 19.1271C151.348 19.2554 151.797 19.5122 152.247 19.8331C152.696 20.154 153.081 20.6033 153.402 21.2452C153.723 21.8228 153.851 22.593 153.851 23.5558C153.851 24.2618 153.787 24.9037 153.53 25.4814Z" fill="white"/>
</svg>
