<svg width="176" height="50" viewBox="0 0 176 50" fill="black" xmlns="http://www.w3.org/2000/svg">
<path d="M46.4699 13.4146L46.4057 10.6547L43.7741 12.1951L40.3723 14.249L35.8152 10.1412L34.018 8.47237L31.9641 9.69188L30.2311 10.7188L27.407 12.4518L28.1772 13.1579L30.2953 15.0834L33.7613 18.2285L30.3595 20.2824L27.7279 21.887L27.5353 21.6944L25.0321 19.3838L19.5764 14.4416L16.5597 11.7458L12.0668 7.70215L12.1951 13.4788C4.81387 17.1373 0 23.1065 0 29.8459C0 40.9499 13.2221 50 29.4609 50C45.6997 50 58.9218 40.9499 58.9218 29.8459C58.8576 23.0423 53.9795 17.0731 46.4699 13.4146ZM29.4609 46.4698C15.1476 46.4698 3.53017 38.9602 3.53017 29.7817C3.53017 24.8395 6.93197 20.3466 12.3235 17.2657L12.5161 27.1502L28.2414 41.3992L34.2748 37.7407L34.018 28.3055L34.4031 28.0487L40.7574 33.8254L46.7908 30.1668L46.5341 17.3299C51.9256 20.4108 55.3916 24.8395 55.3916 29.8459C55.3916 39.0244 43.7741 46.4698 29.4609 46.4698Z" fill="black"/>
<path d="M24.6475 0L24.84 8.27984L30.1674 5.00642L24.6475 0Z" fill="black"/>
<path d="M71.4375 37.5479H72.2077L73.4914 42.3617L74.9035 37.5479H75.6737L77.0858 42.3617L78.4336 37.5479H79.1397L77.4709 43.3245H76.7007L75.2886 38.4464L73.8765 43.3245H73.1063L71.4375 37.5479Z" fill="black"/>
<path d="M79.9102 37.5479H80.6162V39.9869H83.6971V37.5479H84.4031V43.3245H83.6971V40.6287H80.6162V43.3245H79.9102V37.5479Z" fill="black"/>
<path d="M85.8154 37.5479H89.474V38.1897H86.5215V39.9869H89.2814V40.6287H86.5215V42.6827H89.6023V43.3245H85.8154V37.5479Z" fill="black"/>
<path d="M90.6286 37.5479H92.1049C92.3616 37.5479 92.6826 37.5479 92.9393 37.612C93.196 37.6762 93.4528 37.7404 93.6453 37.8046C93.8379 37.933 94.0304 38.0613 94.1588 38.2539C94.2872 38.4464 94.3514 38.7674 94.3514 39.0883C94.3514 39.5376 94.223 39.8585 93.9662 40.1152C93.7095 40.372 93.3886 40.5645 92.8751 40.6287L94.5439 43.2603H93.7095L92.1691 40.6929H91.2705V43.2603H90.5645V37.5479H90.6286ZM91.3347 40.1152H91.9765C92.1691 40.1152 92.3616 40.1152 92.5542 40.1152C92.7467 40.1152 92.9393 40.0511 93.1318 39.9869C93.3244 39.9227 93.4528 39.8585 93.5811 39.7301C93.7095 39.6018 93.7737 39.4092 93.7737 39.1525C93.7737 38.9599 93.7095 38.7674 93.6453 38.639C93.5811 38.5106 93.4528 38.4464 93.3244 38.3181C93.196 38.2539 93.0677 38.1897 92.8751 38.1897C92.6825 38.1897 92.5542 38.1255 92.3616 38.1255H91.3988V40.1152H91.3347Z" fill="black"/>
<path d="M95.6357 37.5479H99.2943V38.1897H96.3418V39.9869H99.1017V40.6287H96.3418V42.6827H99.4227V43.3245H95.6357V37.5479Z" fill="black"/>
<path d="M106.803 38.7673C106.61 38.5106 106.418 38.3822 106.161 38.2538C105.904 38.1255 105.648 38.0613 105.391 38.0613C105.07 38.0613 104.749 38.1255 104.492 38.2538C104.236 38.3822 103.979 38.5748 103.786 38.7673C103.594 38.9599 103.465 39.2166 103.337 39.5375C103.209 39.8585 103.145 40.1152 103.145 40.4361C103.145 40.757 103.209 41.078 103.337 41.3989C103.465 41.7198 103.594 41.9124 103.786 42.1691C103.979 42.3617 104.236 42.5542 104.492 42.6826C104.749 42.811 105.07 42.8752 105.391 42.8752C105.712 42.8752 106.033 42.811 106.354 42.6826C106.61 42.5542 106.867 42.3617 107.06 42.1049L107.573 42.5542C107.317 42.8752 106.996 43.1319 106.611 43.3244C106.225 43.517 105.84 43.5812 105.391 43.5812C105.006 43.5812 104.621 43.517 104.236 43.3244C103.851 43.1961 103.594 42.9393 103.273 42.6826C103.016 42.4259 102.824 42.1049 102.631 41.7198C102.503 41.3347 102.438 40.9496 102.438 40.5003C102.438 40.051 102.503 39.6659 102.631 39.2808C102.759 38.8957 102.952 38.5748 103.209 38.318C103.465 38.0613 103.786 37.8045 104.107 37.6762C104.428 37.5478 104.878 37.4194 105.263 37.4194C105.648 37.4194 106.033 37.4836 106.418 37.612C106.803 37.7404 107.06 37.9971 107.317 38.318L106.803 38.7673Z" fill="black"/>
<path d="M110.333 37.5479H110.975L113.414 43.3245H112.644L112.066 41.9124H109.178L108.6 43.3245H107.83L110.333 37.5479ZM110.654 38.4464L109.435 41.2706H111.81L110.654 38.4464Z" fill="black"/>
<path d="M114.185 37.5479H115.019L118.357 42.3617V37.5479H119.063V43.3245H118.228L114.891 38.5106V43.3245H114.185V37.5479Z" fill="black"/>
<path d="M122.144 37.5479H122.914L124.197 42.3617L125.61 37.5479H126.38L127.792 42.3617L129.14 37.5479H129.846L128.177 43.3245H127.407L125.995 38.4464L124.583 43.3245H123.812L122.144 37.5479Z" fill="black"/>
<path d="M130.681 37.5479H134.339V38.1897H131.387V39.9869H134.147V40.6287H131.387V42.6827H134.468V43.3245H130.681V37.5479Z" fill="black"/>
<path d="M141.656 38.1897H139.73V43.3245H139.024V38.1897H137.099V37.5479H141.592V38.1897H141.656Z" fill="black"/>
<path d="M143.581 37.5479H144.223L146.662 43.3245H145.892L145.314 41.9124H142.426L141.848 43.3245H141.078L143.581 37.5479ZM143.902 38.4464L142.683 41.2706H145.058L143.902 38.4464Z" fill="black"/>
<path d="M147.433 37.5479H148.139V40.0511H148.267L150.899 37.5479H151.861L149.037 40.1794L152.054 43.3245H151.027L148.267 40.372H148.139V43.3245H147.433V37.5479Z" fill="black"/>
<path d="M152.567 37.5479H156.226V38.1897H153.273V39.9869H156.033V40.6287H153.273V42.6827H156.354V43.3245H152.567V37.5479Z" fill="black"/>
<path d="M161.04 40.8213L158.857 37.5479H159.756L161.361 40.1794L163.029 37.5479H163.864L161.682 40.8213V43.3245H160.976V40.8213H161.04Z" fill="black"/>
<path d="M167.201 43.4528C166.752 43.4528 166.367 43.3886 165.982 43.196C165.597 43.0035 165.276 42.8109 165.019 42.5542C164.762 42.2974 164.57 41.9765 164.377 41.5914C164.249 41.2063 164.185 40.8212 164.185 40.3719C164.185 39.9226 164.249 39.5375 164.377 39.1524C164.505 38.7673 164.762 38.4463 165.019 38.1896C165.276 37.9329 165.597 37.7403 165.982 37.5478C166.367 37.4194 166.752 37.291 167.201 37.291C167.651 37.291 168.036 37.3552 168.421 37.5478C168.806 37.6761 169.127 37.9329 169.384 38.1896C169.64 38.4463 169.833 38.7673 170.025 39.1524C170.154 39.5375 170.218 39.9226 170.218 40.3719C170.218 40.8212 170.154 41.2063 170.025 41.5914C169.897 41.9765 169.64 42.2974 169.384 42.5542C169.127 42.8109 168.806 43.0035 168.421 43.196C168.036 43.3886 167.651 43.4528 167.201 43.4528ZM167.201 42.8109C167.522 42.8109 167.843 42.7467 168.1 42.6184C168.357 42.49 168.613 42.2974 168.806 42.1049C168.998 41.9123 169.191 41.6556 169.255 41.3347C169.448 41.0779 169.448 40.757 169.448 40.4361C169.448 40.1151 169.384 39.7942 169.255 39.4733C169.127 39.1524 168.998 38.9598 168.806 38.7031C168.613 38.5105 168.357 38.318 168.1 38.1896C167.843 38.0612 167.522 37.997 167.201 37.997C166.88 37.997 166.559 38.0612 166.303 38.1896C166.046 38.318 165.789 38.5105 165.597 38.7031C165.404 38.8956 165.212 39.1524 165.147 39.4733C165.019 39.7942 164.955 40.051 164.955 40.4361C164.955 40.757 165.019 41.0779 165.147 41.3988C165.276 41.7198 165.404 41.9123 165.597 42.1691C165.789 42.3616 166.046 42.5542 166.303 42.6825C166.559 42.7467 166.88 42.8109 167.201 42.8109Z" fill="black"/>
<path d="M175.61 41.1422C175.61 41.4631 175.546 41.784 175.481 42.0408C175.417 42.2975 175.289 42.5543 175.096 42.811C174.904 43.0036 174.711 43.1961 174.454 43.3245C174.198 43.4529 173.813 43.517 173.427 43.517C173.042 43.517 172.721 43.4529 172.4 43.3245C172.08 43.1961 171.887 43.0036 171.759 42.811C171.566 42.6184 171.438 42.3617 171.373 42.0408C171.309 41.784 171.245 41.4631 171.245 41.1422V37.5479H171.951V41.0138C171.951 41.2706 171.951 41.4631 172.015 41.7199C172.08 41.9124 172.144 42.105 172.272 42.2975C172.4 42.4901 172.529 42.6185 172.721 42.6826C172.914 42.811 173.171 42.811 173.427 42.811C173.684 42.811 173.941 42.7468 174.133 42.6826C174.326 42.5543 174.454 42.4259 174.583 42.2975C174.711 42.105 174.775 41.9124 174.839 41.7199C174.904 41.5273 174.904 41.2706 174.904 41.0138V37.5479H175.61V41.1422Z" fill="black"/>
<path d="M81.3222 22.0793H74.8395V16.1743H71.9512V30.7443H74.8395V24.8393H81.3222V30.7443H84.2105V16.1743H81.3222V22.0793Z" fill="black"/>
<path d="M90.8212 24.8393H97.1113V22.0793H90.8212V18.9985H97.8815V16.1743H87.9971V30.7443H98.2025V27.9843H90.8212V24.8393Z" fill="black"/>
<path d="M104.044 16.1743H101.155V30.7443H110.911V27.9843H104.044V16.1743Z" fill="black"/>
<path d="M116.753 16.1743H113.864V30.7443H116.753V16.1743Z" fill="black"/>
<path d="M130.488 21.1166C130.488 20.0896 130.296 19.2552 129.846 18.485C129.397 17.7789 128.755 17.2013 127.921 16.752C127.086 16.3669 126.059 16.1743 124.84 16.1743H120.411V30.7443H123.299V26.123H125.353C126.316 26.123 127.086 25.9946 127.728 25.6737C128.37 25.3528 128.884 24.9676 129.269 24.5184C129.654 24.0691 129.911 23.4914 130.103 22.9137C130.424 22.2719 130.488 21.6942 130.488 21.1166ZM127.536 21.8226C127.471 22.0793 127.343 22.3361 127.151 22.5286C126.958 22.7854 126.765 22.9779 126.445 23.1063C126.124 23.2347 125.803 23.363 125.353 23.363H123.299V18.9985H125.353C125.867 18.9985 126.252 19.0626 126.573 19.2552C126.894 19.4477 127.086 19.6403 127.215 19.897C127.343 20.1538 127.471 20.4105 127.471 20.6673C127.536 20.924 127.536 21.1166 127.536 21.2449C127.6 21.3733 127.6 21.5658 127.536 21.8226Z" fill="black"/>
<path d="M136.521 15.5967L129.975 30.7443H132.799L133.954 27.9202H138.768L139.923 30.7443H143.261L136.714 15.5967H136.521ZM134.981 25.4811L136.457 21.951L137.869 25.4811H134.981Z" fill="black"/>
<path d="M156.419 21.0526C156.098 20.154 155.649 19.3196 155.071 18.6136C154.429 17.9076 153.595 17.3299 152.568 16.8806C151.541 16.4313 150.321 16.2388 148.845 16.2388H144.48V30.8087H149.551C150.514 30.8087 151.477 30.6162 152.375 30.2953C153.274 29.9743 154.044 29.525 154.686 28.8832C155.328 28.2413 155.905 27.5353 156.29 26.6367C156.676 25.8023 156.868 24.7754 156.868 23.7484C156.868 22.8498 156.676 21.9512 156.419 21.0526ZM153.531 25.4814C153.274 26.0591 152.953 26.5083 152.568 26.8935C152.118 27.2786 151.605 27.5353 151.027 27.7279C150.45 27.9204 149.744 27.9846 149.038 27.9846H147.305V18.9345H149.615C149.936 18.9345 150.321 18.9987 150.835 19.1271C151.348 19.2555 151.798 19.5122 152.247 19.8331C152.696 20.154 153.081 20.6033 153.402 21.2452C153.723 21.8229 153.851 22.5931 153.851 23.5558C153.851 24.2619 153.787 24.9037 153.531 25.4814Z" fill="black"/>
</svg>
