<svg width="177" height="50" viewBox="0 0 177 50" fill="current" xmlns="http://www.w3.org/2000/svg">
<path d="M46.9699 13.4146L46.9057 10.6547L44.2741 12.1951L40.8723 14.249L36.3152 10.1412L34.518 8.47237L32.4641 9.69188L30.7311 10.7188L27.907 12.4518L28.6772 13.1579L30.7953 15.0834L34.2613 18.2285L30.8595 20.2824L28.2279 21.887L28.0353 21.6944L25.5321 19.3838L20.0764 14.4416L17.0597 11.7458L12.5668 7.70215L12.6951 13.4788C5.31387 17.1373 0.5 23.1065 0.5 29.8459C0.5 40.9499 13.7221 50 29.9609 50C46.1997 50 59.4218 40.9499 59.4218 29.8459C59.3576 23.0423 54.4795 17.0731 46.9699 13.4146ZM29.9609 46.4698C15.6476 46.4698 4.03017 38.9602 4.03017 29.7817C4.03017 24.8395 7.43197 20.3466 12.8235 17.2657L13.0161 27.1502L28.7414 41.3992L34.7748 37.7407L34.518 28.3055L34.9031 28.0487L41.2574 33.8254L47.2908 30.1668L47.0341 17.3299C52.4256 20.4108 55.8916 24.8395 55.8916 29.8459C55.8916 39.0244 44.2741 46.4698 29.9609 46.4698Z" fill="current"/>
<path d="M25.147 0L25.3395 8.27984L30.6669 5.00642L25.147 0Z" fill="current"/>
<path d="M81.8222 22.0798H75.3395V16.1748H72.4512V30.7448H75.3395V24.8398H81.8222V30.7448H84.7105V16.1748H81.8222V22.0798Z" fill="current"/>
<path d="M91.3217 24.8398H97.6118V22.0798H91.3217V18.9989H98.382V16.1748H88.4976V30.7448H98.703V27.9848H91.3217V24.8398Z" fill="current"/>
<path d="M104.544 16.1748H101.655V30.7448H111.411V27.9848H104.544V16.1748Z" fill="current"/>
<path d="M117.252 16.1748H114.364V30.7448H117.252V16.1748Z" fill="current"/>
<path d="M130.988 21.117C130.988 20.0901 130.795 19.2557 130.346 18.4855C129.897 17.7794 129.255 17.2018 128.42 16.7525C127.586 16.3674 126.559 16.1748 125.339 16.1748H120.911V30.7448H123.799V26.1235H125.853C126.816 26.1235 127.586 25.9951 128.228 25.6742C128.87 25.3532 129.383 24.9681 129.768 24.5188C130.153 24.0695 130.41 23.4919 130.603 22.9142C130.924 22.2724 130.988 21.6947 130.988 21.117ZM128.035 21.8231C127.971 22.0798 127.843 22.3366 127.65 22.5291C127.458 22.7858 127.265 22.9784 126.944 23.1068C126.623 23.2351 126.302 23.3635 125.853 23.3635H123.799V18.9989H125.853C126.366 18.9989 126.751 19.0631 127.072 19.2557C127.393 19.4482 127.586 19.6408 127.714 19.8975C127.843 20.1543 127.971 20.411 127.971 20.6677C128.035 20.9245 128.035 21.117 128.035 21.2454C128.099 21.3738 128.099 21.5663 128.035 21.8231Z" fill="current"/>
<path d="M137.021 15.5967L130.474 30.7443H133.298L134.454 27.9202H139.267L140.423 30.7443H143.76L137.214 15.5967H137.021ZM135.481 25.4811L136.957 21.951L138.369 25.4811H135.481Z" fill="current"/>
<path d="M156.918 21.0521C156.597 20.1536 156.148 19.3192 155.57 18.6131C154.929 17.9071 154.094 17.3294 153.067 16.8801C152.04 16.4308 150.821 16.2383 149.345 16.2383H144.98V30.8082H150.051C151.013 30.8082 151.976 30.6157 152.875 30.2948C153.773 29.9738 154.544 29.5245 155.185 28.8827C155.827 28.2408 156.405 27.5348 156.79 26.6362C157.175 25.8018 157.368 24.7749 157.368 23.7479C157.368 22.8493 157.175 21.9507 156.918 21.0521ZM154.03 25.4809C153.773 26.0586 153.452 26.5079 153.067 26.893C152.618 27.2781 152.104 27.5348 151.527 27.7274C150.949 27.9199 150.243 27.9841 149.537 27.9841H147.804V18.934H150.115C150.436 18.934 150.821 18.9982 151.334 19.1266C151.848 19.255 152.297 19.5117 152.746 19.8326C153.196 20.1536 153.581 20.6029 153.902 21.2447C154.223 21.8224 154.351 22.5926 154.351 23.5554C154.351 24.2614 154.287 24.9032 154.03 25.4809Z" fill="current"/>
</svg>
