<svg width="90" height="50" viewBox="0 0 336 282" fill="current" xmlns="http://www.w3.org/2000/svg">
<path d="M141.06 0V42.48L167.57 24.94L141.06 0Z" fill="current"/>
<path d="M264.66 58.03V169.41L233.57 189.48L197.76 157.6L193.04 161.14V212.7L159.19 233.16L69.07 151.82V40.72L95.32 64.01L96.75 65.29L159.52 121L192.64 98.57L159.52 67.78L195.03 47L230.82 80.14L248.92 68.32L250.01 67.61L264.66 58.03Z" fill="current"/>
<path d="M335.14 167.03C335.14 198.16 317.25 227.18 284.77 248.74C253.34 269.6 211.72 281.09 167.57 281.09C123.42 281.09 81.8 269.6 50.37 248.74C17.89 227.18 0 198.16 0 167.03C0 144.51 9.52 122.77 27.51 104.17C38.67 92.63 52.77 82.64 69.07 74.6C77.29 70.56 86.07 67 95.32 64.01L96.75 65.29L101.34 79.7C89.66 83.41 78.83 88.08 69.07 93.54C57.64 99.94 47.69 107.44 39.57 115.84C24.66 131.25 16.78 148.95 16.78 167.03C16.78 192.36 32.01 216.41 59.65 234.77C88.36 253.82 126.68 264.32 167.57 264.32C208.46 264.32 246.78 253.82 275.49 234.77C303.14 216.41 318.36 192.36 318.36 167.03C318.36 138.36 298.28 111.16 264.66 92.78C258.06 89.17 250.94 85.9 243.35 83.02L248.92 68.32L250.01 67.61C255.09 69.55 259.97 71.66 264.66 73.92C308.53 95.11 335.14 129.76 335.14 167.03Z" fill="current"/>
</svg>
