<svg width="35" height="27" viewBox="0 0 35 24" fill="none" xmlns="http://www.w3.org/2000/svg">
<path d="M12 22C17.5228 22 22 17.5228 22 12C22 6.47715 17.5228 2 12 2C6.47715 2 2 6.47715 2 12C2 17.5228 6.47715 22 12 22Z" stroke="white" stroke-width="1.5" stroke-linecap="round" stroke-linejoin="round"/>
<path d="M11.9999 15.3333C14.3011 15.3333 16.1666 13.4679 16.1666 11.1667C16.1666 8.86548 14.3011 7 11.9999 7C9.69873 7 7.83325 8.86548 7.83325 11.1667C7.83325 13.4679 9.69873 15.3333 11.9999 15.3333Z" stroke="white" stroke-width="1.5" stroke-linecap="round" stroke-linejoin="round"/>
<path d="M5.3125 19.4348C5.94022 18.2007 6.89721 17.1643 8.07753 16.4404C9.25785 15.7165 10.6155 15.3333 12.0001 15.3333C13.3847 15.3333 14.7423 15.7165 15.9226 16.4404C17.103 17.1642 18.06 18.2006 18.6877 19.4348" stroke="white" stroke-width="1.5" stroke-linecap="round" stroke-linejoin="round"/>
<path d="M28 11L31 14L34 11" stroke="white" stroke-width="1.5"/>
</svg>
