<svg width="36" height="24" viewBox="0 0 36 24" fill="none" xmlns="http://www.w3.org/2000/svg">
<path d="M12.8779 22C18.4008 22 22.8779 17.5228 22.8779 12C22.8779 6.47715 18.4008 2 12.8779 2C7.35508 2 2.87793 6.47715 2.87793 12C2.87793 17.5228 7.35508 22 12.8779 22Z" stroke="black" stroke-width="1.5" stroke-linecap="round" stroke-linejoin="round"/>
<path d="M12.8776 15.3333C15.1788 15.3333 17.0443 13.4679 17.0443 11.1667C17.0443 8.86548 15.1788 7 12.8776 7C10.5764 7 8.71094 8.86548 8.71094 11.1667C8.71094 13.4679 10.5764 15.3333 12.8776 15.3333Z" stroke="black" stroke-width="1.5" stroke-linecap="round" stroke-linejoin="round"/>
<path d="M6.19043 19.435C6.81815 18.2008 7.77514 17.1644 8.95546 16.4405C10.1358 15.7166 11.4934 15.3335 12.878 15.3335C14.2626 15.3335 15.6202 15.7166 16.8006 16.4405C17.9809 17.1644 18.9379 18.2008 19.5656 19.4349" stroke="black" stroke-width="1.5" stroke-linecap="round" stroke-linejoin="round"/>
<path d="M28.8779 11L31.8779 14L34.8779 11" stroke="black" stroke-width="1.5"/>
</svg>
