<svg width="187" height="121" viewBox="0 0 187 121" fill="none" xmlns="http://www.w3.org/2000/svg">
<rect width="187" height="121" rx="22" fill="#F7F7F7"/>
<g clip-path="url(#clip0)">
<path d="M108.25 23H79.75C78.4902 23 77.282 23.5004 76.3912 24.3912C75.5004 25.282 75 26.4902 75 27.75V38.8333C75.0041 40.0056 75.4444 41.1344 76.235 42C75.4444 42.8656 75.0041 43.9944 75 45.1667V56.25C75 57.5098 75.5004 58.718 76.3912 59.6088C77.282 60.4996 78.4902 61 79.75 61H108.25C109.51 61 110.718 60.4996 111.609 59.6088C112.5 58.718 113 57.5098 113 56.25V45.1667C112.996 43.9944 112.556 42.8656 111.765 42C112.556 41.1344 112.996 40.0056 113 38.8333V27.75C113 26.4902 112.5 25.282 111.609 24.3912C110.718 23.5004 109.51 23 108.25 23V23ZM78.1667 27.75C78.1667 27.3301 78.3335 26.9273 78.6304 26.6304C78.9273 26.3335 79.3301 26.1667 79.75 26.1667H108.25C108.67 26.1667 109.073 26.3335 109.37 26.6304C109.667 26.9273 109.833 27.3301 109.833 27.75V38.8333C109.833 39.2533 109.667 39.656 109.37 39.9529C109.073 40.2499 108.67 40.4167 108.25 40.4167H79.75C79.3301 40.4167 78.9273 40.2499 78.6304 39.9529C78.3335 39.656 78.1667 39.2533 78.1667 38.8333V27.75ZM109.833 56.25C109.833 56.6699 109.667 57.0727 109.37 57.3696C109.073 57.6665 108.67 57.8333 108.25 57.8333H79.75C79.3301 57.8333 78.9273 57.6665 78.6304 57.3696C78.3335 57.0727 78.1667 56.6699 78.1667 56.25V45.1667C78.1667 44.7467 78.3335 44.344 78.6304 44.0471C78.9273 43.7501 79.3301 43.5833 79.75 43.5833H108.25C108.67 43.5833 109.073 43.7501 109.37 44.0471C109.667 44.344 109.833 44.7467 109.833 45.1667V56.25Z" fill="#ACACAC"/>
<path d="M92.4167 35.6668H95.5833C96.8431 35.6668 98.0513 35.1664 98.9421 34.2756C99.8329 33.3848 100.333 32.1766 100.333 30.9168C100.333 30.4969 100.167 30.0942 99.8696 29.7972C99.5727 29.5003 99.1699 29.3335 98.75 29.3335C98.3301 29.3335 97.9273 29.5003 97.6304 29.7972C97.3335 30.0942 97.1667 30.4969 97.1667 30.9168C97.1667 31.3368 96.9999 31.7395 96.7029 32.0364C96.406 32.3333 96.0033 32.5002 95.5833 32.5002H92.4167C91.9968 32.5002 91.594 32.3333 91.2971 32.0364C91.0002 31.7395 90.8333 31.3368 90.8333 30.9168C90.8333 30.4969 90.6665 30.0942 90.3696 29.7972C90.0727 29.5003 89.6699 29.3335 89.25 29.3335C88.8301 29.3335 88.4274 29.5003 88.1304 29.7972C87.8335 30.0942 87.6667 30.4969 87.6667 30.9168C87.6667 32.1766 88.1671 33.3848 89.0579 34.2756C89.9487 35.1664 91.1569 35.6668 92.4167 35.6668Z" fill="#ACACAC"/>
<path d="M98.75 46.75C98.3301 46.75 97.9273 46.9168 97.6304 47.2137C97.3335 47.5107 97.1667 47.9134 97.1667 48.3333C97.1667 48.7533 96.9999 49.156 96.7029 49.4529C96.406 49.7498 96.0033 49.9167 95.5833 49.9167H92.4167C91.9968 49.9167 91.594 49.7498 91.2971 49.4529C91.0002 49.156 90.8333 48.7533 90.8333 48.3333C90.8333 47.9134 90.6665 47.5107 90.3696 47.2137C90.0727 46.9168 89.6699 46.75 89.25 46.75C88.8301 46.75 88.4274 46.9168 88.1304 47.2137C87.8335 47.5107 87.6667 47.9134 87.6667 48.3333C87.6667 49.5931 88.1671 50.8013 89.0579 51.6921C89.9487 52.5829 91.1569 53.0833 92.4167 53.0833H95.5833C96.8431 53.0833 98.0513 52.5829 98.9421 51.6921C99.8329 50.8013 100.333 49.5931 100.333 48.3333C100.333 47.9134 100.167 47.5107 99.8696 47.2137C99.5727 46.9168 99.1699 46.75 98.75 46.75Z" fill="#ACACAC"/>
</g>
<path d="M53.832 82.88H50.2V94H53.832C57.4 94 59.736 91.904 59.736 88.48C59.736 85.04 57.4 82.88 53.832 82.88ZM52.024 92.512V84.368H53.832C56.456 84.368 57.864 85.936 57.864 88.48C57.864 91.008 56.456 92.512 53.832 92.512H52.024ZM60.9358 89.552C60.9358 92.272 62.7758 94.144 65.0638 94.144C66.5358 94.144 67.5918 93.44 68.1518 92.688V94H69.9918V85.184H68.1518V86.464C67.6078 85.744 66.5838 85.04 65.0958 85.04C62.7758 85.04 60.9358 86.832 60.9358 89.552ZM68.1518 89.584C68.1518 91.488 66.8558 92.56 65.4798 92.56C64.1198 92.56 62.8078 91.456 62.8078 89.552C62.8078 87.648 64.1198 86.624 65.4798 86.624C66.8558 86.624 68.1518 87.696 68.1518 89.584ZM78.9635 91.536C78.8675 88.352 73.8915 89.344 73.8915 87.568C73.8915 86.976 74.4035 86.576 75.3795 86.576C76.3715 86.576 76.9635 87.104 77.0275 87.872H78.8515C78.7555 86.112 77.4435 85.04 75.4435 85.04C73.3635 85.04 72.0515 86.176 72.0515 87.584C72.0515 90.816 77.1715 89.824 77.1715 91.552C77.1715 92.16 76.6115 92.608 75.5555 92.608C74.5475 92.608 73.8595 92.016 73.7955 91.296H71.9075C71.9875 92.896 73.4755 94.144 75.5875 94.144C77.6675 94.144 78.9635 93.024 78.9635 91.536ZM80.9344 94H82.7584V89.072C82.7584 87.456 83.6384 86.624 84.9824 86.624C86.3104 86.624 87.1904 87.456 87.1904 89.072V94H88.9984V88.8C88.9984 86.336 87.4624 85.04 85.4944 85.04C84.3584 85.04 83.3664 85.472 82.7584 86.208V82.16H80.9344V94ZM93.149 86.496V82.16H91.325V94H93.149V92.72C93.725 93.488 94.765 94.144 96.221 94.144C98.541 94.144 100.365 92.272 100.365 89.552C100.365 86.832 98.557 85.04 96.221 85.04C94.829 85.04 93.725 85.696 93.149 86.496ZM98.509 89.552C98.509 91.456 97.197 92.56 95.821 92.56C94.461 92.56 93.149 91.488 93.149 89.584C93.149 87.696 94.461 86.624 95.821 86.624C97.197 86.624 98.509 87.648 98.509 89.552ZM110.569 89.584C110.569 86.816 108.585 85.04 106.073 85.04C103.561 85.04 101.577 86.816 101.577 89.584C101.577 92.352 103.481 94.144 105.993 94.144C108.521 94.144 110.569 92.352 110.569 89.584ZM103.433 89.584C103.433 87.584 104.665 86.624 106.041 86.624C107.401 86.624 108.697 87.584 108.697 89.584C108.697 91.584 107.353 92.56 105.993 92.56C104.617 92.56 103.433 91.584 103.433 89.584ZM111.764 89.552C111.764 92.272 113.604 94.144 115.892 94.144C117.364 94.144 118.42 93.44 118.98 92.688V94H120.82V85.184H118.98V86.464C118.436 85.744 117.412 85.04 115.924 85.04C113.604 85.04 111.764 86.832 111.764 89.552ZM118.98 89.584C118.98 91.488 117.684 92.56 116.308 92.56C114.948 92.56 113.636 91.456 113.636 89.552C113.636 87.648 114.948 86.624 116.308 86.624C117.684 86.624 118.98 87.696 118.98 89.584ZM125.04 89.36C125.04 87.488 125.872 86.928 127.216 86.928H127.68V85.04C126.432 85.04 125.552 85.584 125.04 86.464V85.184H123.216V94H125.04V89.36ZM128.748 89.552C128.748 92.272 130.588 94.144 132.908 94.144C134.348 94.144 135.404 93.472 135.964 92.672V94H137.804V82.16H135.964V86.416C135.292 85.584 134.076 85.04 132.924 85.04C130.588 85.04 128.748 86.832 128.748 89.552ZM135.964 89.584C135.964 91.488 134.668 92.56 133.292 92.56C131.932 92.56 130.62 91.456 130.62 89.552C130.62 87.648 131.932 86.624 133.292 86.624C134.668 86.624 135.964 87.696 135.964 89.584Z" fill="#8F8F8F"/>
<defs>
<clipPath id="clip0">
<rect width="38" height="38" fill="white" transform="translate(75 23)"/>
</clipPath>
</defs>
</svg>
