<svg width="187" height="121" viewBox="0 0 187 121" fill="none" xmlns="http://www.w3.org/2000/svg">
<rect width="187" height="121" rx="22" fill="#F7F7F7"/>
<g clip-path="url(#clip0)">
<path fill-rule="evenodd" clip-rule="evenodd" d="M79.2284 41.2975L74.7328 37.7995C74.2502 37.4252 73.9785 36.8419 74.0013 36.2301C74.0222 35.6202 74.3376 35.0578 74.845 34.7195L91.9455 23.3192C92.5839 22.8936 93.4161 22.8936 94.0545 23.3192L111.155 34.7195C111.662 35.0578 111.978 35.6202 111.999 36.2301C112.021 36.8419 111.75 37.4252 111.267 37.7995L106.772 41.2975L111.155 44.2198C111.662 44.558 111.978 45.1205 111.999 45.7304C112.021 46.3422 111.75 46.9255 111.267 47.2998L94.1666 60.6002C93.4807 61.1341 92.5192 61.1341 91.8333 60.6002L74.7328 47.2998C74.2502 46.9255 73.9785 46.3422 74.0013 45.7304C74.0222 45.1205 74.3376 44.558 74.845 44.2198L79.2284 41.2975ZM94.1666 51.0999C94.007 51.2215 93.8341 51.3203 93.646 51.3887C93.2071 51.5465 92.7131 51.5369 92.2818 51.3602C92.1203 51.2937 91.972 51.2063 91.8333 51.0999L82.3919 43.7562L79.1467 45.9185L93 56.6937L106.853 45.9185L103.608 43.7562L94.1666 51.0999ZM79.1467 36.4182L93 47.1934L106.853 36.4182L93 27.1839L79.1467 36.4182Z" fill="#ACACAC"/>
</g>
<path d="M21.9827 84.176V87.6H26.1427V89.008H21.9827V92.512H26.6227V94H20.1587V82.704H26.6227V84.176H21.9827ZM31.2891 85.072C32.3237 85.072 33.1504 85.3387 33.7691 85.872C34.3984 86.3947 34.7824 87.0987 34.9211 87.984H33.1931C33.1184 87.504 32.9104 87.12 32.5691 86.832C32.2384 86.5333 31.7957 86.384 31.2411 86.384C30.7824 86.384 30.4251 86.496 30.1691 86.72C29.9237 86.9333 29.8011 87.2267 29.8011 87.6C29.8011 87.8773 29.8917 88.1013 30.0731 88.272C30.2544 88.4427 30.4784 88.576 30.7451 88.672C31.0224 88.768 31.4117 88.8747 31.9131 88.992C32.5744 89.1413 33.1077 89.296 33.5131 89.456C33.9291 89.616 34.2811 89.872 34.5691 90.224C34.8677 90.5653 35.0171 91.0347 35.0171 91.632C35.0171 92.368 34.7344 92.9653 34.1691 93.424C33.6144 93.8827 32.8624 94.112 31.9131 94.112C30.8144 94.112 29.9237 93.856 29.2411 93.344C28.5691 92.832 28.1637 92.1173 28.0251 91.2H29.8011C29.8544 91.68 30.0677 92.0693 30.4411 92.368C30.8144 92.6667 31.3051 92.816 31.9131 92.816C32.3504 92.816 32.6917 92.704 32.9371 92.48C33.1931 92.2453 33.3211 91.952 33.3211 91.6C33.3211 91.2907 33.2251 91.0453 33.0331 90.864C32.8411 90.6827 32.6011 90.544 32.3131 90.448C32.0251 90.3413 31.6304 90.2347 31.1291 90.128C30.4891 89.9787 29.9664 89.8293 29.5611 89.68C29.1664 89.5307 28.8251 89.2907 28.5371 88.96C28.2597 88.6187 28.1211 88.16 28.1211 87.584C28.1211 86.8373 28.3984 86.2347 28.9531 85.776C29.5184 85.3067 30.2971 85.072 31.2891 85.072ZM40.7662 85.072C41.9075 85.072 42.8515 85.376 43.5982 85.984C44.3449 86.5813 44.8089 87.3973 44.9902 88.432H43.0542C42.9475 87.8773 42.6862 87.4453 42.2702 87.136C41.8649 86.816 41.3529 86.656 40.7342 86.656C40.0302 86.656 39.4435 86.9067 38.9742 87.408C38.5049 87.8987 38.2702 88.624 38.2702 89.584C38.2702 90.544 38.5049 91.2747 38.9742 91.776C39.4435 92.2773 40.0302 92.528 40.7342 92.528C41.3529 92.528 41.8649 92.368 42.2702 92.048C42.6862 91.728 42.9475 91.2907 43.0542 90.736H44.9902C44.8089 91.7707 44.3449 92.592 43.5982 93.2C42.8515 93.808 41.9075 94.112 40.7662 94.112C39.9129 94.112 39.1555 93.9307 38.4942 93.568C37.8435 93.2053 37.3315 92.6827 36.9582 92C36.5849 91.3173 36.3982 90.512 36.3982 89.584C36.3982 88.6667 36.5849 87.8667 36.9582 87.184C37.3315 86.5013 37.8435 85.9787 38.4942 85.616C39.1555 85.2533 39.9129 85.072 40.7662 85.072ZM48.5764 86.912C48.8751 86.336 49.3018 85.8827 49.8564 85.552C50.4111 85.2107 51.0511 85.04 51.7764 85.04V87.024H51.2324C50.4324 87.024 49.7871 87.2213 49.2964 87.616C48.8164 88 48.5764 88.64 48.5764 89.536V94H46.7524V85.184H48.5764V86.912ZM57.1751 85.072C58.0284 85.072 58.7964 85.2533 59.4791 85.616C60.1617 85.9787 60.6951 86.5013 61.0791 87.184C61.4631 87.8667 61.6551 88.6667 61.6551 89.584C61.6551 90.512 61.4631 91.3173 61.0791 92C60.6951 92.6827 60.1617 93.2053 59.4791 93.568C58.7964 93.9307 58.0284 94.112 57.1751 94.112C56.3217 94.112 55.5537 93.9307 54.8711 93.568C54.1991 93.2053 53.6657 92.6827 53.2711 92C52.8871 91.3067 52.6951 90.5013 52.6951 89.584C52.6951 88.6667 52.8871 87.8667 53.2711 87.184C53.6657 86.5013 54.1991 85.9787 54.8711 85.616C55.5537 85.2533 56.3217 85.072 57.1751 85.072ZM57.1751 86.656C56.7057 86.656 56.2737 86.7627 55.8791 86.976C55.4844 87.1893 55.1644 87.52 54.9191 87.968C54.6844 88.4053 54.5671 88.944 54.5671 89.584C54.5671 90.2347 54.6844 90.7787 54.9191 91.216C55.1644 91.6533 55.4844 91.9787 55.8791 92.192C56.2737 92.4053 56.7057 92.512 57.1751 92.512C57.6444 92.512 58.0764 92.4053 58.4711 92.192C58.8657 91.9787 59.1804 91.6533 59.4151 91.216C59.6604 90.7787 59.7831 90.2347 59.7831 89.584C59.7831 88.944 59.6604 88.4053 59.4151 87.968C59.1804 87.52 58.8657 87.1893 58.4711 86.976C58.0764 86.7627 57.6444 86.656 57.1751 86.656ZM75.7607 85.184L73.3127 94H71.2967L69.1207 87.184L66.9127 94H64.9127L62.4647 85.184H64.3047L65.9847 92.32L68.1927 85.184H70.1127L72.3527 92.32L74.0327 85.184H75.7607ZM82.5764 82.704V94H80.7524V82.704H82.5764ZM89.7117 85.04C90.7357 85.04 91.557 85.3707 92.1757 86.032C92.7944 86.6933 93.1037 87.6373 93.1037 88.864V94H91.2797V89.056C91.2797 88.2667 91.077 87.6587 90.6717 87.232C90.2664 86.7947 89.7117 86.576 89.0077 86.576C88.2824 86.576 87.701 86.8107 87.2637 87.28C86.8264 87.7387 86.6077 88.416 86.6077 89.312V94H84.7837V85.184H86.6077V87.12C86.8424 86.4587 87.237 85.9467 87.7917 85.584C88.3464 85.2213 88.9864 85.04 89.7117 85.04ZM100.811 89.616V94H98.9868V82.704H102.827C104.128 82.704 105.104 83.0133 105.755 83.632C106.416 84.2507 106.747 85.0987 106.747 86.176C106.747 87.2427 106.411 88.0853 105.739 88.704C105.067 89.312 104.096 89.616 102.827 89.616H100.811ZM102.635 88.128C104.139 88.128 104.891 87.4773 104.891 86.176C104.891 85.536 104.709 85.0507 104.347 84.72C103.995 84.3787 103.424 84.208 102.635 84.208H100.811V88.128H102.635ZM110.17 86.912C110.469 86.336 110.896 85.8827 111.45 85.552C112.005 85.2107 112.645 85.04 113.37 85.04V87.024H112.826C112.026 87.024 111.381 87.2213 110.89 87.616C110.41 88 110.17 88.64 110.17 89.536V94H108.346V85.184H110.17V86.912ZM118.769 85.072C119.622 85.072 120.39 85.2533 121.073 85.616C121.755 85.9787 122.289 86.5013 122.673 87.184C123.057 87.8667 123.249 88.6667 123.249 89.584C123.249 90.512 123.057 91.3173 122.673 92C122.289 92.6827 121.755 93.2053 121.073 93.568C120.39 93.9307 119.622 94.112 118.769 94.112C117.915 94.112 117.147 93.9307 116.465 93.568C115.793 93.2053 115.259 92.6827 114.865 92C114.481 91.3067 114.289 90.5013 114.289 89.584C114.289 88.6667 114.481 87.8667 114.865 87.184C115.259 86.5013 115.793 85.9787 116.465 85.616C117.147 85.2533 117.915 85.072 118.769 85.072ZM118.769 86.656C118.299 86.656 117.867 86.7627 117.473 86.976C117.078 87.1893 116.758 87.52 116.513 87.968C116.278 88.4053 116.161 88.944 116.161 89.584C116.161 90.2347 116.278 90.7787 116.513 91.216C116.758 91.6533 117.078 91.9787 117.473 92.192C117.867 92.4053 118.299 92.512 118.769 92.512C119.238 92.512 119.67 92.4053 120.065 92.192C120.459 91.9787 120.774 91.6533 121.009 91.216C121.254 90.7787 121.377 90.2347 121.377 89.584C121.377 88.944 121.254 88.4053 121.009 87.968C120.774 87.52 120.459 87.1893 120.065 86.976C119.67 86.7627 119.238 86.656 118.769 86.656ZM128.538 85.072C129.338 85.072 130.021 85.2693 130.586 85.664C131.152 86.0587 131.552 86.5813 131.786 87.232V85.184H133.61V94.096C133.61 94.9173 133.44 95.6427 133.098 96.272C132.768 96.912 132.288 97.4133 131.658 97.776C131.029 98.1387 130.282 98.32 129.418 98.32C128.181 98.32 127.178 98.0267 126.41 97.44C125.653 96.8533 125.178 96.0587 124.986 95.056H126.794C126.944 95.5787 127.232 95.984 127.658 96.272C128.085 96.5707 128.629 96.72 129.29 96.72C130.016 96.72 130.613 96.496 131.082 96.048C131.552 95.6 131.786 94.9493 131.786 94.096V91.952C131.552 92.6027 131.152 93.1253 130.586 93.52C130.021 93.9147 129.338 94.112 128.538 94.112C127.77 94.112 127.082 93.9307 126.474 93.568C125.877 93.2053 125.408 92.6827 125.066 92C124.725 91.3173 124.554 90.512 124.554 89.584C124.554 88.6667 124.725 87.8667 125.066 87.184C125.408 86.5013 125.877 85.9787 126.474 85.616C127.082 85.2533 127.77 85.072 128.538 85.072ZM129.098 86.672C128.288 86.672 127.637 86.9333 127.146 87.456C126.666 87.968 126.426 88.6773 126.426 89.584C126.426 90.4907 126.666 91.2053 127.146 91.728C127.637 92.24 128.288 92.496 129.098 92.496C129.61 92.496 130.069 92.3787 130.474 92.144C130.88 91.8987 131.2 91.5573 131.434 91.12C131.669 90.6827 131.786 90.1707 131.786 89.584C131.786 89.008 131.669 88.5013 131.434 88.064C131.2 87.616 130.88 87.2747 130.474 87.04C130.069 86.7947 129.61 86.672 129.098 86.672ZM137.623 86.912C137.922 86.336 138.349 85.8827 138.903 85.552C139.458 85.2107 140.098 85.04 140.823 85.04V87.024H140.279C139.479 87.024 138.834 87.2213 138.343 87.616C137.863 88 137.623 88.64 137.623 89.536V94H135.799V85.184H137.623V86.912ZM150.382 89.168C150.382 89.4667 150.361 89.728 150.318 89.952H143.534C143.566 90.8587 143.817 91.5307 144.286 91.968C144.755 92.4053 145.337 92.624 146.03 92.624C146.638 92.624 147.15 92.4693 147.566 92.16C147.993 91.8507 148.254 91.44 148.35 90.928H150.302C150.185 91.5467 149.939 92.096 149.566 92.576C149.193 93.056 148.707 93.4347 148.11 93.712C147.513 93.9787 146.846 94.112 146.11 94.112C145.257 94.112 144.499 93.9307 143.838 93.568C143.187 93.2053 142.675 92.6827 142.302 92C141.929 91.3173 141.742 90.512 141.742 89.584C141.742 88.6667 141.929 87.8667 142.302 87.184C142.675 86.5013 143.187 85.9787 143.838 85.616C144.499 85.2533 145.257 85.072 146.11 85.072C146.974 85.072 147.726 85.2533 148.366 85.616C149.017 85.968 149.513 86.4587 149.854 87.088C150.206 87.7067 150.382 88.4 150.382 89.168ZM148.542 89.12C148.563 88.544 148.462 88.064 148.238 87.68C148.025 87.2853 147.726 86.9973 147.342 86.816C146.969 86.624 146.558 86.528 146.11 86.528C145.395 86.528 144.798 86.7467 144.318 87.184C143.838 87.6213 143.577 88.2667 143.534 89.12H148.542ZM155.039 85.072C156.074 85.072 156.9 85.3387 157.519 85.872C158.148 86.3947 158.532 87.0987 158.671 87.984H156.943C156.868 87.504 156.66 87.12 156.319 86.832C155.988 86.5333 155.546 86.384 154.991 86.384C154.532 86.384 154.175 86.496 153.919 86.72C153.674 86.9333 153.551 87.2267 153.551 87.6C153.551 87.8773 153.642 88.1013 153.823 88.272C154.004 88.4427 154.228 88.576 154.495 88.672C154.772 88.768 155.162 88.8747 155.663 88.992C156.324 89.1413 156.858 89.296 157.263 89.456C157.679 89.616 158.031 89.872 158.319 90.224C158.618 90.5653 158.767 91.0347 158.767 91.632C158.767 92.368 158.484 92.9653 157.919 93.424C157.364 93.8827 156.612 94.112 155.663 94.112C154.564 94.112 153.674 93.856 152.991 93.344C152.319 92.832 151.914 92.1173 151.775 91.2H153.551C153.604 91.68 153.818 92.0693 154.191 92.368C154.564 92.6667 155.055 92.816 155.663 92.816C156.1 92.816 156.442 92.704 156.687 92.48C156.943 92.2453 157.071 91.952 157.071 91.6C157.071 91.2907 156.975 91.0453 156.783 90.864C156.591 90.6827 156.351 90.544 156.063 90.448C155.775 90.3413 155.38 90.2347 154.879 90.128C154.239 89.9787 153.716 89.8293 153.311 89.68C152.916 89.5307 152.575 89.2907 152.287 88.96C152.01 88.6187 151.871 88.16 151.871 87.584C151.871 86.8373 152.148 86.2347 152.703 85.776C153.268 85.3067 154.047 85.072 155.039 85.072ZM163.492 85.072C164.527 85.072 165.354 85.3387 165.972 85.872C166.602 86.3947 166.986 87.0987 167.124 87.984H165.396C165.322 87.504 165.114 87.12 164.772 86.832C164.442 86.5333 163.999 86.384 163.444 86.384C162.986 86.384 162.628 86.496 162.372 86.72C162.127 86.9333 162.004 87.2267 162.004 87.6C162.004 87.8773 162.095 88.1013 162.276 88.272C162.458 88.4427 162.682 88.576 162.948 88.672C163.226 88.768 163.615 88.8747 164.116 88.992C164.778 89.1413 165.311 89.296 165.716 89.456C166.132 89.616 166.484 89.872 166.772 90.224C167.071 90.5653 167.22 91.0347 167.22 91.632C167.22 92.368 166.938 92.9653 166.372 93.424C165.818 93.8827 165.066 94.112 164.116 94.112C163.018 94.112 162.127 93.856 161.444 93.344C160.772 92.832 160.367 92.1173 160.228 91.2H162.004C162.058 91.68 162.271 92.0693 162.644 92.368C163.018 92.6667 163.508 92.816 164.116 92.816C164.554 92.816 164.895 92.704 165.14 92.48C165.396 92.2453 165.524 91.952 165.524 91.6C165.524 91.2907 165.428 91.0453 165.236 90.864C165.044 90.6827 164.804 90.544 164.516 90.448C164.228 90.3413 163.834 90.2347 163.332 90.128C162.692 89.9787 162.17 89.8293 161.764 89.68C161.37 89.5307 161.028 89.2907 160.74 88.96C160.463 88.6187 160.324 88.16 160.324 87.584C160.324 86.8373 160.602 86.2347 161.156 85.776C161.722 85.3067 162.5 85.072 163.492 85.072Z" fill="#8F8F8F"/>
<defs>
<clipPath id="clip0">
<rect width="38" height="38" fill="white" transform="translate(74 23)"/>
</clipPath>
</defs>
</svg>
