<svg width="187" height="121" viewBox="0 0 187 121" fill="none" xmlns="http://www.w3.org/2000/svg">
<rect width="187" height="121" rx="22" fill="#F7F7F7"/>
<g clip-path="url(#clip0)">
<path d="M91.241 23C85.3332 23 80.5312 27.802 80.5312 33.7098C80.5312 39.6102 85.3332 44.4195 91.241 44.4195C97.1488 44.4195 101.951 39.6176 101.951 33.7098C101.943 27.802 97.1414 23 91.241 23ZM91.241 40.7086C87.3816 40.7086 84.2422 37.5691 84.2422 33.7098C84.2422 29.8504 87.3816 26.7109 91.241 26.7109C95.1004 26.7109 98.2398 29.8504 98.2398 33.7098C98.2398 37.5691 95.093 40.7086 91.241 40.7086Z" fill="#ACACAC"/>
<path d="M94.6551 57.2892H79.1656C78.5422 57.2892 78.1785 56.933 78.0153 56.7177C77.7332 56.3466 77.6442 55.8791 77.7703 55.4338C78.5348 52.658 80.1231 50.2087 82.357 48.3681C83.1438 47.715 83.2625 46.5498 82.6094 45.7556C81.9563 44.9689 80.791 44.8501 79.9969 45.5033C77.1692 47.8412 75.1578 50.9287 74.193 54.4466C73.7551 56.0275 74.0742 57.6752 75.0613 58.9666C76.0485 60.258 77.5403 61.0002 79.1656 61.0002H94.6551C95.6793 61.0002 96.5106 60.1689 96.5106 59.1447C96.5106 58.1205 95.6793 57.2892 94.6551 57.2892Z" fill="#ACACAC"/>
<path d="M110.145 57.2891H101.669C100.645 57.2891 99.8133 58.1203 99.8133 59.1445C99.8133 60.1688 100.645 61 101.669 61H110.145C111.169 61 112 60.1688 112 59.1445C112 58.1203 111.169 57.2891 110.145 57.2891Z" fill="#ACACAC"/>
<path d="M110.145 50.6094H101.669C100.645 50.6094 99.8133 51.4406 99.8133 52.4648C99.8133 53.4891 100.645 54.3203 101.669 54.3203H110.145C111.169 54.3203 112 53.4891 112 52.4648C112 51.4406 111.169 50.6094 110.145 50.6094Z" fill="#ACACAC"/>
<path d="M99.8133 45.7852C99.8133 46.8094 100.645 47.6406 101.669 47.6406H110.145C111.169 47.6406 112 46.8094 112 45.7852C112 44.7609 111.169 43.9297 110.145 43.9297H101.669C100.645 43.9297 99.8133 44.7609 99.8133 45.7852Z" fill="#ACACAC"/>
</g>
<path d="M81.1276 82.704V84.176H76.2796V87.68H80.2796V89.088H76.2796V94H74.4556V82.704H81.1276ZM89.4884 91.552H84.7204L83.8564 94H81.9044L86.0644 82.88H88.1604L92.3044 94H90.3524L89.4884 91.552ZM88.9764 90.144L87.1044 84.864L85.2324 90.144H88.9764ZM102.443 96.128L100.427 93.936C99.936 94.064 99.424 94.128 98.8907 94.128C97.8347 94.128 96.88 93.8827 96.0267 93.392C95.184 92.8907 94.5174 92.2027 94.0267 91.328C93.536 90.4427 93.2907 89.4453 93.2907 88.336C93.2907 87.2267 93.536 86.2347 94.0267 85.36C94.5174 84.4747 95.184 83.7867 96.0267 83.296C96.88 82.8053 97.8347 82.56 98.8907 82.56C99.936 82.56 100.88 82.8053 101.723 83.296C102.576 83.7867 103.243 84.4747 103.723 85.36C104.213 86.2347 104.459 87.2267 104.459 88.336C104.459 89.4027 104.229 90.368 103.771 91.232C103.312 92.096 102.688 92.7787 101.899 93.28L104.699 96.128H102.443ZM95.1627 88.336C95.1627 89.1573 95.3174 89.8773 95.6267 90.496C95.9467 91.1147 96.3894 91.5893 96.9547 91.92C97.52 92.2507 98.1654 92.416 98.8907 92.416C99.6054 92.416 100.24 92.2507 100.795 91.92C101.36 91.5893 101.797 91.1147 102.107 90.496C102.427 89.8773 102.587 89.1573 102.587 88.336C102.587 87.5147 102.427 86.7947 102.107 86.176C101.797 85.5573 101.36 85.0827 100.795 84.752C100.24 84.4213 99.6054 84.256 98.8907 84.256C98.1654 84.256 97.52 84.4213 96.9547 84.752C96.3894 85.0827 95.9467 85.5573 95.6267 86.176C95.3174 86.7947 95.1627 87.5147 95.1627 88.336ZM109.195 85.072C110.23 85.072 111.057 85.3387 111.675 85.872C112.305 86.3947 112.689 87.0987 112.827 87.984H111.099C111.025 87.504 110.817 87.12 110.475 86.832C110.145 86.5333 109.702 86.384 109.147 86.384C108.689 86.384 108.331 86.496 108.075 86.72C107.83 86.9333 107.707 87.2267 107.707 87.6C107.707 87.8773 107.798 88.1013 107.979 88.272C108.161 88.4427 108.385 88.576 108.651 88.672C108.929 88.768 109.318 88.8747 109.819 88.992C110.481 89.1413 111.014 89.296 111.419 89.456C111.835 89.616 112.187 89.872 112.475 90.224C112.774 90.5653 112.923 91.0347 112.923 91.632C112.923 92.368 112.641 92.9653 112.075 93.424C111.521 93.8827 110.769 94.112 109.819 94.112C108.721 94.112 107.83 93.856 107.147 93.344C106.475 92.832 106.07 92.1173 105.931 91.2H107.707C107.761 91.68 107.974 92.0693 108.347 92.368C108.721 92.6667 109.211 92.816 109.819 92.816C110.257 92.816 110.598 92.704 110.843 92.48C111.099 92.2453 111.227 91.952 111.227 91.6C111.227 91.2907 111.131 91.0453 110.939 90.864C110.747 90.6827 110.507 90.544 110.219 90.448C109.931 90.3413 109.537 90.2347 109.035 90.128C108.395 89.9787 107.873 89.8293 107.467 89.68C107.073 89.5307 106.731 89.2907 106.443 88.96C106.166 88.6187 106.027 88.16 106.027 87.584C106.027 86.8373 106.305 86.2347 106.859 85.776C107.425 85.3067 108.203 85.072 109.195 85.072Z" fill="#8F8F8F"/>
<defs>
<clipPath id="clip0">
<rect width="38" height="38" fill="white" transform="translate(74 23)"/>
</clipPath>
</defs>
</svg>
