<svg width="80" height="68" viewBox="0 0 80 68" fill="none" xmlns="http://www.w3.org/2000/svg">
<path d="M62.3139 17.9883L62.2279 14.2873L58.699 16.3529L54.1374 19.1072L48.0265 13.5987L45.6165 11.361L42.8623 12.9963L40.5385 14.3734L36.7514 16.6972L37.7843 17.644L40.6245 20.226L45.2723 24.4434L40.7106 27.1976L37.1818 29.3493L36.9236 29.0911L33.5669 25.9927L26.251 19.3654L22.2058 15.7505L16.181 10.3281L16.3531 18.0743C6.45517 22.9802 0 30.9847 0 40.0219C0 54.9118 17.7302 67.0475 39.5056 67.0475C61.2811 67.0475 79.0113 54.9118 79.0113 40.0219C78.9252 30.8986 72.384 22.8942 62.3139 17.9883ZM39.5056 62.3137C20.3123 62.3137 4.73379 52.2437 4.73379 39.9358C4.73379 33.3085 9.29545 27.2837 16.5252 23.1524L16.7834 36.407L37.8703 55.5143L45.9608 50.6084L45.6165 37.9562L46.133 37.612L54.6538 45.3582L62.7443 40.4522L62.4 23.2385C69.6298 27.3698 74.2775 33.3085 74.2775 40.0219C74.2775 52.3297 58.699 62.3137 39.5056 62.3137Z" fill="black"/>
<path d="M33.0508 0L33.309 11.1029L40.4527 6.71337L33.0508 0Z" fill="black"/>
</svg>
