<svg width="187" height="121" viewBox="0 0 187 121" fill="none" xmlns="http://www.w3.org/2000/svg">
<rect width="187" height="121" rx="22" fill="#F7F7F7"/>
<path d="M89.1208 60.604H75.9791C75.1083 60.604 74.3958 59.8915 74.3958 59.0207V37.1707C74.3958 36.7749 74.5541 36.2999 74.8708 36.0624L88.0124 23.7915C88.4874 23.3957 89.1208 23.2374 89.6749 23.4749C90.3083 23.7915 90.6249 24.3457 90.6249 24.979V59.0999C90.6249 59.8915 89.9124 60.604 89.1208 60.604ZM77.4833 57.5165H87.5374V28.5415L77.4833 37.8832V57.5165Z" fill="#ACACAC"/>
<path d="M110.021 60.6038H89.0416C88.1708 60.6038 87.4583 59.8913 87.4583 59.0205V40.4163C87.4583 39.5455 88.1708 38.833 89.0416 38.833H110.021C110.892 38.833 111.604 39.5455 111.604 40.4163V59.0997C111.604 59.8913 110.892 60.6038 110.021 60.6038ZM90.6249 57.5163H108.517V41.9205H90.6249V57.5163Z" fill="#ACACAC"/>
<path d="M102.579 60.6038H96.4832C95.6124 60.6038 94.8999 59.8913 94.8999 59.0205V49.3621C94.8999 48.4913 95.6124 47.7788 96.4832 47.7788H102.579C103.45 47.7788 104.162 48.4913 104.162 49.3621V59.0205C104.162 59.8913 103.45 60.6038 102.579 60.6038ZM98.0666 57.5163H101.075V50.9455H98.0666V57.5163Z" fill="#ACACAC"/>
<path d="M55.0608 89.616V94H53.2368V82.704H57.0768C58.3781 82.704 59.3541 83.0133 60.0048 83.632C60.6661 84.2507 60.9968 85.0987 60.9968 86.176C60.9968 87.2427 60.6608 88.0853 59.9888 88.704C59.3168 89.312 58.3461 89.616 57.0768 89.616H55.0608ZM56.8848 88.128C58.3888 88.128 59.1408 87.4773 59.1408 86.176C59.1408 85.536 58.9595 85.0507 58.5968 84.72C58.2448 84.3787 57.6741 84.208 56.8848 84.208H55.0608V88.128H56.8848ZM64.4202 86.912C64.7189 86.336 65.1455 85.8827 65.7002 85.552C66.2549 85.2107 66.8949 85.04 67.6202 85.04V87.024H67.0762C66.2762 87.024 65.6309 87.2213 65.1402 87.616C64.6602 88 64.4202 88.64 64.4202 89.536V94H62.5962V85.184H64.4202V86.912ZM73.0188 85.072C73.8721 85.072 74.6401 85.2533 75.3228 85.616C76.0055 85.9787 76.5388 86.5013 76.9228 87.184C77.3068 87.8667 77.4988 88.6667 77.4988 89.584C77.4988 90.512 77.3068 91.3173 76.9228 92C76.5388 92.6827 76.0055 93.2053 75.3228 93.568C74.6401 93.9307 73.8721 94.112 73.0188 94.112C72.1655 94.112 71.3975 93.9307 70.7148 93.568C70.0428 93.2053 69.5095 92.6827 69.1148 92C68.7308 91.3067 68.5388 90.5013 68.5388 89.584C68.5388 88.6667 68.7308 87.8667 69.1148 87.184C69.5095 86.5013 70.0428 85.9787 70.7148 85.616C71.3975 85.2533 72.1655 85.072 73.0188 85.072ZM73.0188 86.656C72.5495 86.656 72.1175 86.7627 71.7228 86.976C71.3281 87.1893 71.0081 87.52 70.7628 87.968C70.5281 88.4053 70.4108 88.944 70.4108 89.584C70.4108 90.2347 70.5281 90.7787 70.7628 91.216C71.0081 91.6533 71.3281 91.9787 71.7228 92.192C72.1175 92.4053 72.5495 92.512 73.0188 92.512C73.4881 92.512 73.9201 92.4053 74.3148 92.192C74.7095 91.9787 75.0241 91.6533 75.2588 91.216C75.5041 90.7787 75.6268 90.2347 75.6268 89.584C75.6268 88.944 75.5041 88.4053 75.2588 87.968C75.0241 87.52 74.7095 87.1893 74.3148 86.976C73.9201 86.7627 73.4881 86.656 73.0188 86.656ZM84.3084 85.072C85.0764 85.072 85.7591 85.2533 86.3564 85.616C86.9644 85.9787 87.4391 86.5013 87.7804 87.184C88.1218 87.8667 88.2924 88.6667 88.2924 89.584C88.2924 90.512 88.1218 91.3173 87.7804 92C87.4391 92.6827 86.9644 93.2053 86.3564 93.568C85.7591 93.9307 85.0764 94.112 84.3084 94.112C83.5084 94.112 82.8258 93.9147 82.2604 93.52C81.6951 93.1253 81.3004 92.6027 81.0764 91.952V98.192H79.2524V85.184H81.0764V87.232C81.3004 86.5813 81.6951 86.0587 82.2604 85.664C82.8258 85.2693 83.5084 85.072 84.3084 85.072ZM83.7484 86.672C83.2364 86.672 82.7778 86.7947 82.3724 87.04C81.9671 87.2747 81.6471 87.616 81.4124 88.064C81.1778 88.5013 81.0604 89.008 81.0604 89.584C81.0604 90.1707 81.1778 90.6827 81.4124 91.12C81.6471 91.5573 81.9671 91.8987 82.3724 92.144C82.7778 92.3787 83.2364 92.496 83.7484 92.496C84.5591 92.496 85.2098 92.24 85.7004 91.728C86.1911 91.2053 86.4364 90.4907 86.4364 89.584C86.4364 88.688 86.1911 87.9787 85.7004 87.456C85.2098 86.9333 84.5591 86.672 83.7484 86.672ZM98.2413 89.168C98.2413 89.4667 98.22 89.728 98.1773 89.952H91.3933C91.4253 90.8587 91.676 91.5307 92.1453 91.968C92.6146 92.4053 93.196 92.624 93.8893 92.624C94.4973 92.624 95.0093 92.4693 95.4253 92.16C95.852 91.8507 96.1133 91.44 96.2093 90.928H98.1613C98.044 91.5467 97.7986 92.096 97.4253 92.576C97.052 93.056 96.5666 93.4347 95.9693 93.712C95.372 93.9787 94.7053 94.112 93.9693 94.112C93.116 94.112 92.3586 93.9307 91.6973 93.568C91.0466 93.2053 90.5346 92.6827 90.1613 92C89.788 91.3173 89.6013 90.512 89.6013 89.584C89.6013 88.6667 89.788 87.8667 90.1613 87.184C90.5346 86.5013 91.0466 85.9787 91.6973 85.616C92.3586 85.2533 93.116 85.072 93.9693 85.072C94.8333 85.072 95.5853 85.2533 96.2253 85.616C96.876 85.968 97.372 86.4587 97.7133 87.088C98.0653 87.7067 98.2413 88.4 98.2413 89.168ZM96.4013 89.12C96.4226 88.544 96.3213 88.064 96.0973 87.68C95.884 87.2853 95.5853 86.9973 95.2013 86.816C94.828 86.624 94.4173 86.528 93.9693 86.528C93.2546 86.528 92.6573 86.7467 92.1773 87.184C91.6973 87.6213 91.436 88.2667 91.3933 89.12H96.4013ZM101.826 86.912C102.125 86.336 102.552 85.8827 103.106 85.552C103.661 85.2107 104.301 85.04 105.026 85.04V87.024H104.482C103.682 87.024 103.037 87.2213 102.546 87.616C102.066 88 101.826 88.64 101.826 89.536V94H100.002V85.184H101.826V86.912ZM110.825 92.416V94H109.705C108.766 94 108.052 93.776 107.561 93.328C107.081 92.8693 106.841 92.112 106.841 91.056V86.736H105.577V85.184H106.841V82.992H108.681V85.184H110.809V86.736H108.681V91.088C108.681 91.5893 108.772 91.936 108.953 92.128C109.145 92.32 109.476 92.416 109.945 92.416H110.825ZM112.278 82.624C112.278 82.3147 112.384 82.0587 112.598 81.856C112.811 81.6533 113.094 81.552 113.446 81.552C113.798 81.552 114.08 81.6533 114.294 81.856C114.518 82.0587 114.63 82.3147 114.63 82.624C114.63 82.9333 114.518 83.184 114.294 83.376C114.08 83.568 113.798 83.664 113.446 83.664C113.094 83.664 112.811 83.568 112.598 83.376C112.384 83.184 112.278 82.9333 112.278 82.624ZM114.358 85.184V94H112.534V85.184H114.358ZM124.757 89.168C124.757 89.4667 124.736 89.728 124.693 89.952H117.909C117.941 90.8587 118.192 91.5307 118.661 91.968C119.13 92.4053 119.712 92.624 120.405 92.624C121.013 92.624 121.525 92.4693 121.941 92.16C122.368 91.8507 122.629 91.44 122.725 90.928H124.677C124.56 91.5467 124.314 92.096 123.941 92.576C123.568 93.056 123.082 93.4347 122.485 93.712C121.888 93.9787 121.221 94.112 120.485 94.112C119.632 94.112 118.874 93.9307 118.213 93.568C117.562 93.2053 117.05 92.6827 116.677 92C116.304 91.3173 116.117 90.512 116.117 89.584C116.117 88.6667 116.304 87.8667 116.677 87.184C117.05 86.5013 117.562 85.9787 118.213 85.616C118.874 85.2533 119.632 85.072 120.485 85.072C121.349 85.072 122.101 85.2533 122.741 85.616C123.392 85.968 123.888 86.4587 124.229 87.088C124.581 87.7067 124.757 88.4 124.757 89.168ZM122.917 89.12C122.938 88.544 122.837 88.064 122.613 87.68C122.4 87.2853 122.101 86.9973 121.717 86.816C121.344 86.624 120.933 86.528 120.485 86.528C119.77 86.528 119.173 86.7467 118.693 87.184C118.213 87.6213 117.952 88.2667 117.909 89.12H122.917ZM129.414 85.072C130.449 85.072 131.275 85.3387 131.894 85.872C132.523 86.3947 132.907 87.0987 133.046 87.984H131.318C131.243 87.504 131.035 87.12 130.694 86.832C130.363 86.5333 129.921 86.384 129.366 86.384C128.907 86.384 128.55 86.496 128.294 86.72C128.049 86.9333 127.926 87.2267 127.926 87.6C127.926 87.8773 128.017 88.1013 128.198 88.272C128.379 88.4427 128.603 88.576 128.87 88.672C129.147 88.768 129.537 88.8747 130.038 88.992C130.699 89.1413 131.233 89.296 131.638 89.456C132.054 89.616 132.406 89.872 132.694 90.224C132.993 90.5653 133.142 91.0347 133.142 91.632C133.142 92.368 132.859 92.9653 132.294 93.424C131.739 93.8827 130.987 94.112 130.038 94.112C128.939 94.112 128.049 93.856 127.366 93.344C126.694 92.832 126.289 92.1173 126.15 91.2H127.926C127.979 91.68 128.193 92.0693 128.566 92.368C128.939 92.6667 129.43 92.816 130.038 92.816C130.475 92.816 130.817 92.704 131.062 92.48C131.318 92.2453 131.446 91.952 131.446 91.6C131.446 91.2907 131.35 91.0453 131.158 90.864C130.966 90.6827 130.726 90.544 130.438 90.448C130.15 90.3413 129.755 90.2347 129.254 90.128C128.614 89.9787 128.091 89.8293 127.686 89.68C127.291 89.5307 126.95 89.2907 126.662 88.96C126.385 88.6187 126.246 88.16 126.246 87.584C126.246 86.8373 126.523 86.2347 127.078 85.776C127.643 85.3067 128.422 85.072 129.414 85.072Z" fill="#8F8F8F"/>
</svg>
