<svg width="114" height="16" viewBox="0 0 114 16" fill="none" xmlns="http://www.w3.org/2000/svg">
<path d="M14.4945 10.9462V13.3034C14.4945 13.4721 14.4306 13.6347 14.3155 13.7581C14.2005 13.8816 14.0428 13.9569 13.8745 13.9687C13.5832 13.9887 13.3452 13.9993 13.1612 13.9993C7.27019 13.9993 2.49512 9.22427 2.49512 3.33326C2.49512 3.14927 2.50512 2.91128 2.52578 2.61997C2.5376 2.4516 2.61283 2.29399 2.73631 2.17893C2.85978 2.06387 3.0223 1.99992 3.19108 2H5.54828C5.63097 1.99992 5.71074 2.03057 5.77209 2.08601C5.83344 2.14145 5.87199 2.21771 5.88026 2.29998C5.8956 2.45331 5.90959 2.5753 5.92293 2.66796C6.05541 3.59253 6.32691 4.49175 6.72822 5.33515C6.79155 5.46847 6.75021 5.6278 6.63022 5.71313L5.19163 6.74107C6.07122 8.79059 7.70453 10.4239 9.75405 11.3035L10.7807 9.86756C10.8226 9.8089 10.8838 9.76682 10.9536 9.74867C11.0234 9.73052 11.0974 9.73744 11.1626 9.76823C12.0059 10.1688 12.9049 10.4396 13.8292 10.5715C13.9218 10.5849 14.0438 10.5995 14.1958 10.6142C14.278 10.6226 14.3541 10.6612 14.4094 10.7226C14.4647 10.7839 14.4952 10.8636 14.4951 10.9462H14.4945Z" fill="white"/>
<path d="M26.542 7.42383H28.9209V8.44922H26.542V11.1445H25.4521V8.44922H23.0732V7.42383H25.4521V4.93359H26.542V7.42383ZM35.4834 8.36133C35.4834 9.63086 35.2666 10.5742 34.833 11.1914C34.3994 11.8086 33.7217 12.1172 32.7998 12.1172C31.8896 12.1172 31.2158 11.8164 30.7783 11.2148C30.3408 10.6094 30.1143 9.70703 30.0986 8.50781V7.06055C30.0986 5.80664 30.3154 4.875 30.749 4.26562C31.1826 3.65625 31.8623 3.35156 32.7881 3.35156C33.7061 3.35156 34.3818 3.64648 34.8154 4.23633C35.249 4.82227 35.4717 5.72852 35.4834 6.95508V8.36133ZM34.3994 6.87891C34.3994 5.96094 34.2705 5.29297 34.0127 4.875C33.7549 4.45312 33.3467 4.24219 32.7881 4.24219C32.2334 4.24219 31.8291 4.45117 31.5752 4.86914C31.3213 5.28711 31.1904 5.92969 31.1826 6.79688V8.53125C31.1826 9.45312 31.3154 10.1348 31.5811 10.5762C31.8506 11.0137 32.2568 11.2324 32.7998 11.2324C33.335 11.2324 33.7314 11.0254 33.9893 10.6113C34.251 10.1973 34.3877 9.54492 34.3994 8.6543V6.87891ZM42.2217 8.36133C42.2217 9.63086 42.0049 10.5742 41.5713 11.1914C41.1377 11.8086 40.46 12.1172 39.5381 12.1172C38.6279 12.1172 37.9541 11.8164 37.5166 11.2148C37.0791 10.6094 36.8525 9.70703 36.8369 8.50781V7.06055C36.8369 5.80664 37.0537 4.875 37.4873 4.26562C37.9209 3.65625 38.6006 3.35156 39.5264 3.35156C40.4443 3.35156 41.1201 3.64648 41.5537 4.23633C41.9873 4.82227 42.21 5.72852 42.2217 6.95508V8.36133ZM41.1377 6.87891C41.1377 5.96094 41.0088 5.29297 40.751 4.875C40.4932 4.45312 40.085 4.24219 39.5264 4.24219C38.9717 4.24219 38.5674 4.45117 38.3135 4.86914C38.0596 5.28711 37.9287 5.92969 37.9209 6.79688V8.53125C37.9209 9.45312 38.0537 10.1348 38.3193 10.5762C38.5889 11.0137 38.9951 11.2324 39.5381 11.2324C40.0732 11.2324 40.4697 11.0254 40.7275 10.6113C40.9893 10.1973 41.126 9.54492 41.1377 8.6543V6.87891ZM45.9775 8.81836H43.1182V7.93359H45.9775V8.81836ZM52.2764 8.36133C52.2764 9.63086 52.0596 10.5742 51.626 11.1914C51.1924 11.8086 50.5146 12.1172 49.5928 12.1172C48.6826 12.1172 48.0088 11.8164 47.5713 11.2148C47.1338 10.6094 46.9072 9.70703 46.8916 8.50781V7.06055C46.8916 5.80664 47.1084 4.875 47.542 4.26562C47.9756 3.65625 48.6553 3.35156 49.5811 3.35156C50.499 3.35156 51.1748 3.64648 51.6084 4.23633C52.042 4.82227 52.2646 5.72852 52.2764 6.95508V8.36133ZM51.1924 6.87891C51.1924 5.96094 51.0635 5.29297 50.8057 4.875C50.5479 4.45312 50.1396 4.24219 49.5811 4.24219C49.0264 4.24219 48.6221 4.45117 48.3682 4.86914C48.1143 5.28711 47.9834 5.92969 47.9756 6.79688V8.53125C47.9756 9.45312 48.1084 10.1348 48.374 10.5762C48.6436 11.0137 49.0498 11.2324 49.5928 11.2324C50.1279 11.2324 50.5244 11.0254 50.7822 10.6113C51.0439 10.1973 51.1807 9.54492 51.1924 8.6543V6.87891ZM59.0146 8.36133C59.0146 9.63086 58.7979 10.5742 58.3643 11.1914C57.9307 11.8086 57.2529 12.1172 56.3311 12.1172C55.4209 12.1172 54.7471 11.8164 54.3096 11.2148C53.8721 10.6094 53.6455 9.70703 53.6299 8.50781V7.06055C53.6299 5.80664 53.8467 4.875 54.2803 4.26562C54.7139 3.65625 55.3936 3.35156 56.3193 3.35156C57.2373 3.35156 57.9131 3.64648 58.3467 4.23633C58.7803 4.82227 59.0029 5.72852 59.0146 6.95508V8.36133ZM57.9307 6.87891C57.9307 5.96094 57.8018 5.29297 57.5439 4.875C57.2861 4.45312 56.8779 4.24219 56.3193 4.24219C55.7646 4.24219 55.3604 4.45117 55.1064 4.86914C54.8525 5.28711 54.7217 5.92969 54.7139 6.79688V8.53125C54.7139 9.45312 54.8467 10.1348 55.1123 10.5762C55.3818 11.0137 55.7881 11.2324 56.3311 11.2324C56.8662 11.2324 57.2627 11.0254 57.5205 10.6113C57.7822 10.1973 57.9189 9.54492 57.9307 8.6543V6.87891ZM65.7529 8.36133C65.7529 9.63086 65.5361 10.5742 65.1025 11.1914C64.6689 11.8086 63.9912 12.1172 63.0693 12.1172C62.1592 12.1172 61.4854 11.8164 61.0479 11.2148C60.6104 10.6094 60.3838 9.70703 60.3682 8.50781V7.06055C60.3682 5.80664 60.585 4.875 61.0186 4.26562C61.4521 3.65625 62.1318 3.35156 63.0576 3.35156C63.9756 3.35156 64.6514 3.64648 65.085 4.23633C65.5186 4.82227 65.7412 5.72852 65.7529 6.95508V8.36133ZM64.6689 6.87891C64.6689 5.96094 64.54 5.29297 64.2822 4.875C64.0244 4.45312 63.6162 4.24219 63.0576 4.24219C62.5029 4.24219 62.0986 4.45117 61.8447 4.86914C61.5908 5.28711 61.46 5.92969 61.4521 6.79688V8.53125C61.4521 9.45312 61.585 10.1348 61.8506 10.5762C62.1201 11.0137 62.5264 11.2324 63.0693 11.2324C63.6045 11.2324 64.001 11.0254 64.2588 10.6113C64.5205 10.1973 64.6572 9.54492 64.6689 8.6543V6.87891ZM69.5088 8.81836H66.6494V7.93359H69.5088V8.81836ZM75.8076 8.36133C75.8076 9.63086 75.5908 10.5742 75.1572 11.1914C74.7236 11.8086 74.0459 12.1172 73.124 12.1172C72.2139 12.1172 71.54 11.8164 71.1025 11.2148C70.665 10.6094 70.4385 9.70703 70.4229 8.50781V7.06055C70.4229 5.80664 70.6396 4.875 71.0732 4.26562C71.5068 3.65625 72.1865 3.35156 73.1123 3.35156C74.0303 3.35156 74.7061 3.64648 75.1396 4.23633C75.5732 4.82227 75.7959 5.72852 75.8076 6.95508V8.36133ZM74.7236 6.87891C74.7236 5.96094 74.5947 5.29297 74.3369 4.875C74.0791 4.45312 73.6709 4.24219 73.1123 4.24219C72.5576 4.24219 72.1533 4.45117 71.8994 4.86914C71.6455 5.28711 71.5146 5.92969 71.5068 6.79688V8.53125C71.5068 9.45312 71.6396 10.1348 71.9053 10.5762C72.1748 11.0137 72.5811 11.2324 73.124 11.2324C73.6592 11.2324 74.0557 11.0254 74.3135 10.6113C74.5752 10.1973 74.7119 9.54492 74.7236 8.6543V6.87891ZM82.5459 8.36133C82.5459 9.63086 82.3291 10.5742 81.8955 11.1914C81.4619 11.8086 80.7842 12.1172 79.8623 12.1172C78.9521 12.1172 78.2783 11.8164 77.8408 11.2148C77.4033 10.6094 77.1768 9.70703 77.1611 8.50781V7.06055C77.1611 5.80664 77.3779 4.875 77.8115 4.26562C78.2451 3.65625 78.9248 3.35156 79.8506 3.35156C80.7686 3.35156 81.4443 3.64648 81.8779 4.23633C82.3115 4.82227 82.5342 5.72852 82.5459 6.95508V8.36133ZM81.4619 6.87891C81.4619 5.96094 81.333 5.29297 81.0752 4.875C80.8174 4.45312 80.4092 4.24219 79.8506 4.24219C79.2959 4.24219 78.8916 4.45117 78.6377 4.86914C78.3838 5.28711 78.2529 5.92969 78.2451 6.79688V8.53125C78.2451 9.45312 78.3779 10.1348 78.6436 10.5762C78.9131 11.0137 79.3193 11.2324 79.8623 11.2324C80.3975 11.2324 80.7939 11.0254 81.0518 10.6113C81.3135 10.1973 81.4502 9.54492 81.4619 8.6543V6.87891ZM89.2842 8.36133C89.2842 9.63086 89.0674 10.5742 88.6338 11.1914C88.2002 11.8086 87.5225 12.1172 86.6006 12.1172C85.6904 12.1172 85.0166 11.8164 84.5791 11.2148C84.1416 10.6094 83.915 9.70703 83.8994 8.50781V7.06055C83.8994 5.80664 84.1162 4.875 84.5498 4.26562C84.9834 3.65625 85.6631 3.35156 86.5889 3.35156C87.5068 3.35156 88.1826 3.64648 88.6162 4.23633C89.0498 4.82227 89.2725 5.72852 89.2842 6.95508V8.36133ZM88.2002 6.87891C88.2002 5.96094 88.0713 5.29297 87.8135 4.875C87.5557 4.45312 87.1475 4.24219 86.5889 4.24219C86.0342 4.24219 85.6299 4.45117 85.376 4.86914C85.1221 5.28711 84.9912 5.92969 84.9834 6.79688V8.53125C84.9834 9.45312 85.1162 10.1348 85.3818 10.5762C85.6514 11.0137 86.0576 11.2324 86.6006 11.2324C87.1357 11.2324 87.5322 11.0254 87.79 10.6113C88.0518 10.1973 88.1885 9.54492 88.2002 8.6543V6.87891ZM93.04 8.81836H90.1807V7.93359H93.04V8.81836ZM99.3389 8.36133C99.3389 9.63086 99.1221 10.5742 98.6885 11.1914C98.2549 11.8086 97.5771 12.1172 96.6553 12.1172C95.7451 12.1172 95.0713 11.8164 94.6338 11.2148C94.1963 10.6094 93.9697 9.70703 93.9541 8.50781V7.06055C93.9541 5.80664 94.1709 4.875 94.6045 4.26562C95.0381 3.65625 95.7178 3.35156 96.6436 3.35156C97.5615 3.35156 98.2373 3.64648 98.6709 4.23633C99.1045 4.82227 99.3271 5.72852 99.3389 6.95508V8.36133ZM98.2549 6.87891C98.2549 5.96094 98.126 5.29297 97.8682 4.875C97.6104 4.45312 97.2021 4.24219 96.6436 4.24219C96.0889 4.24219 95.6846 4.45117 95.4307 4.86914C95.1768 5.28711 95.0459 5.92969 95.0381 6.79688V8.53125C95.0381 9.45312 95.1709 10.1348 95.4365 10.5762C95.7061 11.0137 96.1123 11.2324 96.6553 11.2324C97.1904 11.2324 97.5869 11.0254 97.8447 10.6113C98.1064 10.1973 98.2432 9.54492 98.2549 8.6543V6.87891ZM106.077 8.36133C106.077 9.63086 105.86 10.5742 105.427 11.1914C104.993 11.8086 104.315 12.1172 103.394 12.1172C102.483 12.1172 101.81 11.8164 101.372 11.2148C100.935 10.6094 100.708 9.70703 100.692 8.50781V7.06055C100.692 5.80664 100.909 4.875 101.343 4.26562C101.776 3.65625 102.456 3.35156 103.382 3.35156C104.3 3.35156 104.976 3.64648 105.409 4.23633C105.843 4.82227 106.065 5.72852 106.077 6.95508V8.36133ZM104.993 6.87891C104.993 5.96094 104.864 5.29297 104.606 4.875C104.349 4.45312 103.94 4.24219 103.382 4.24219C102.827 4.24219 102.423 4.45117 102.169 4.86914C101.915 5.28711 101.784 5.92969 101.776 6.79688V8.53125C101.776 9.45312 101.909 10.1348 102.175 10.5762C102.444 11.0137 102.851 11.2324 103.394 11.2324C103.929 11.2324 104.325 11.0254 104.583 10.6113C104.845 10.1973 104.981 9.54492 104.993 8.6543V6.87891ZM112.815 8.36133C112.815 9.63086 112.599 10.5742 112.165 11.1914C111.731 11.8086 111.054 12.1172 110.132 12.1172C109.222 12.1172 108.548 11.8164 108.11 11.2148C107.673 10.6094 107.446 9.70703 107.431 8.50781V7.06055C107.431 5.80664 107.647 4.875 108.081 4.26562C108.515 3.65625 109.194 3.35156 110.12 3.35156C111.038 3.35156 111.714 3.64648 112.147 4.23633C112.581 4.82227 112.804 5.72852 112.815 6.95508V8.36133ZM111.731 6.87891C111.731 5.96094 111.603 5.29297 111.345 4.875C111.087 4.45312 110.679 4.24219 110.12 4.24219C109.565 4.24219 109.161 4.45117 108.907 4.86914C108.653 5.28711 108.522 5.92969 108.515 6.79688V8.53125C108.515 9.45312 108.647 10.1348 108.913 10.5762C109.183 11.0137 109.589 11.2324 110.132 11.2324C110.667 11.2324 111.063 11.0254 111.321 10.6113C111.583 10.1973 111.72 9.54492 111.731 8.6543V6.87891Z" fill="white"/>
</svg>
