<svg width="156" height="16" viewBox="0 0 156 16" fill="none" xmlns="http://www.w3.org/2000/svg">
<path d="M1.49512 3H15.4951V12.9167C15.4951 13.0714 15.4337 13.2197 15.3243 13.3291C15.2149 13.4385 15.0665 13.5 14.9118 13.5H2.07845C1.92374 13.5 1.77537 13.4385 1.66597 13.3291C1.55658 13.2197 1.49512 13.0714 1.49512 12.9167V3Z" stroke="white" stroke-width="1.5" stroke-linecap="round" stroke-linejoin="round"/>
<path d="M15.4951 3L8.49512 9.41667L1.49512 3" stroke="white" stroke-width="1.5" stroke-linecap="round" stroke-linejoin="round"/>
<path d="M29.6357 8.90039C29.6357 9.86914 29.4131 10.6484 28.9678 11.2383C28.5225 11.8242 27.9248 12.1172 27.1748 12.1172C26.374 12.1172 25.7549 11.834 25.3174 11.2676L25.2646 12H24.2686V3H25.3525V6.35742C25.79 5.81445 26.3936 5.54297 27.1631 5.54297C27.9326 5.54297 28.5361 5.83398 28.9736 6.41602C29.415 6.99805 29.6357 7.79492 29.6357 8.80664V8.90039ZM28.5518 8.77734C28.5518 8.03906 28.4092 7.46875 28.124 7.06641C27.8389 6.66406 27.4287 6.46289 26.8936 6.46289C26.1787 6.46289 25.665 6.79492 25.3525 7.45898V10.2012C25.6846 10.8652 26.2021 11.1973 26.9053 11.1973C27.4248 11.1973 27.8291 10.9961 28.1182 10.5938C28.4072 10.1914 28.5518 9.58594 28.5518 8.77734ZM34.0713 6.63281C33.9072 6.60547 33.7295 6.5918 33.5381 6.5918C32.8271 6.5918 32.3447 6.89453 32.0908 7.5V12H31.0068V5.66016H32.0615L32.0791 6.39258C32.4346 5.82617 32.9385 5.54297 33.5908 5.54297C33.8018 5.54297 33.9619 5.57031 34.0713 5.625V6.63281ZM36.251 12H35.167V5.66016H36.251V12ZM35.0791 3.97852C35.0791 3.80273 35.1318 3.6543 35.2373 3.5332C35.3467 3.41211 35.5068 3.35156 35.7178 3.35156C35.9287 3.35156 36.0889 3.41211 36.1982 3.5332C36.3076 3.6543 36.3623 3.80273 36.3623 3.97852C36.3623 4.1543 36.3076 4.30078 36.1982 4.41797C36.0889 4.53516 35.9287 4.59375 35.7178 4.59375C35.5068 4.59375 35.3467 4.53516 35.2373 4.41797C35.1318 4.30078 35.0791 4.1543 35.0791 3.97852ZM41.9053 12C41.8428 11.875 41.792 11.6523 41.7529 11.332C41.249 11.8555 40.6475 12.1172 39.9482 12.1172C39.3232 12.1172 38.8096 11.9414 38.4072 11.5898C38.0088 11.2344 37.8096 10.7852 37.8096 10.2422C37.8096 9.58203 38.0596 9.07031 38.5596 8.70703C39.0635 8.33984 39.7705 8.15625 40.6807 8.15625H41.7354V7.6582C41.7354 7.2793 41.6221 6.97852 41.3955 6.75586C41.1689 6.5293 40.835 6.41602 40.3936 6.41602C40.0068 6.41602 39.6826 6.51367 39.4209 6.70898C39.1592 6.9043 39.0283 7.14062 39.0283 7.41797H37.9385C37.9385 7.10156 38.0498 6.79688 38.2725 6.50391C38.499 6.20703 38.8037 5.97266 39.1865 5.80078C39.5732 5.62891 39.9971 5.54297 40.458 5.54297C41.1885 5.54297 41.7607 5.72656 42.1748 6.09375C42.5889 6.45703 42.8037 6.95898 42.8193 7.59961V10.5176C42.8193 11.0996 42.8936 11.5625 43.042 11.9062V12H41.9053ZM40.1064 11.1738C40.4463 11.1738 40.7686 11.0859 41.0732 10.9102C41.3779 10.7344 41.5986 10.5059 41.7354 10.2246V8.92383H40.8857C39.5576 8.92383 38.8936 9.3125 38.8936 10.0898C38.8936 10.4297 39.0068 10.6953 39.2334 10.8867C39.46 11.0781 39.751 11.1738 40.1064 11.1738ZM45.5439 5.66016L45.5791 6.45703C46.0635 5.84766 46.6963 5.54297 47.4775 5.54297C48.8174 5.54297 49.4932 6.29883 49.5049 7.81055V12H48.4209V7.80469C48.417 7.34766 48.3115 7.00977 48.1045 6.79102C47.9014 6.57227 47.583 6.46289 47.1494 6.46289C46.7979 6.46289 46.4893 6.55664 46.2236 6.74414C45.958 6.93164 45.751 7.17773 45.6025 7.48242V12H44.5186V5.66016H45.5439ZM60.5029 9.05859C60.4561 10.0039 60.2217 10.75 59.7998 11.2969C59.3779 11.8438 58.8135 12.1172 58.1064 12.1172C57.376 12.1172 56.9072 11.7891 56.7002 11.1328C56.4893 11.4648 56.2471 11.7129 55.9736 11.877C55.7041 12.0371 55.4248 12.1172 55.1357 12.1172C54.5811 12.1172 54.1611 11.8906 53.876 11.4375C53.5908 10.9844 53.4854 10.3574 53.5596 9.55664C53.6182 8.91211 53.7646 8.33789 53.999 7.83398C54.2373 7.32617 54.542 6.92773 54.9131 6.63867C55.2881 6.34961 55.6807 6.20508 56.0908 6.20508C56.4072 6.20508 56.6904 6.24805 56.9404 6.33398C57.1904 6.41602 57.4717 6.58008 57.7842 6.82617L57.4795 10.0723C57.4053 10.9746 57.6553 11.4258 58.2295 11.4258C58.6709 11.4258 59.0283 11.207 59.3018 10.7695C59.5752 10.332 59.7236 9.76172 59.7471 9.05859C59.8213 7.53906 59.5381 6.38086 58.8975 5.58398C58.2607 4.78711 57.29 4.38867 55.9854 4.38867C55.2002 4.38867 54.5029 4.58398 53.8936 4.97461C53.2842 5.36133 52.8037 5.92188 52.4521 6.65625C52.1006 7.39062 51.9033 8.23828 51.8604 9.19922C51.8135 10.168 51.9307 11.0098 52.2119 11.7246C52.4932 12.4355 52.9209 12.9785 53.4951 13.3535C54.0732 13.7324 54.7705 13.9219 55.5869 13.9219C55.9385 13.9219 56.29 13.8789 56.6416 13.793C56.9971 13.707 57.292 13.5957 57.5264 13.459L57.7432 14.1328C57.501 14.2852 57.1787 14.4102 56.7764 14.5078C56.3779 14.6055 55.9736 14.6543 55.5635 14.6543C54.5869 14.6543 53.7471 14.4336 53.0439 13.9922C52.3408 13.5547 51.8135 12.9219 51.4619 12.0938C51.1143 11.2695 50.9639 10.3047 51.0107 9.19922C51.0576 8.125 51.2979 7.16016 51.7314 6.30469C52.165 5.44531 52.7529 4.7832 53.4951 4.31836C54.2373 3.84961 55.0752 3.61523 56.0088 3.61523C56.9814 3.61523 57.8154 3.83398 58.5107 4.27148C59.2061 4.70898 59.7236 5.33984 60.0635 6.16406C60.4033 6.98828 60.5498 7.95312 60.5029 9.05859ZM54.4912 9.55664C54.4365 10.1113 54.4873 10.5371 54.6436 10.834C54.8037 11.1309 55.0557 11.2793 55.3994 11.2793C55.6338 11.2793 55.8584 11.1797 56.0732 10.9805C56.292 10.7812 56.4717 10.4961 56.6123 10.125L56.6182 10.0723L56.8877 7.125C56.6689 7.01172 56.4346 6.95508 56.1846 6.95508C55.7275 6.95508 55.3486 7.1875 55.0479 7.65234C54.751 8.11719 54.5654 8.75195 54.4912 9.55664ZM63.0049 6.42773C63.4854 5.83789 64.1104 5.54297 64.8799 5.54297C66.2197 5.54297 66.8955 6.29883 66.9072 7.81055V12H65.8232V7.80469C65.8193 7.34766 65.7139 7.00977 65.5068 6.79102C65.3037 6.57227 64.9854 6.46289 64.5518 6.46289C64.2002 6.46289 63.8916 6.55664 63.626 6.74414C63.3604 6.93164 63.1533 7.17773 63.0049 7.48242V12H61.9209V3H63.0049V6.42773ZM71.1611 12.1172C70.3018 12.1172 69.6025 11.8359 69.0635 11.2734C68.5244 10.707 68.2549 9.95117 68.2549 9.00586V8.80664C68.2549 8.17773 68.374 7.61719 68.6123 7.125C68.8545 6.62891 69.1904 6.24219 69.6201 5.96484C70.0537 5.68359 70.5225 5.54297 71.0264 5.54297C71.8506 5.54297 72.4912 5.81445 72.9482 6.35742C73.4053 6.90039 73.6338 7.67773 73.6338 8.68945V9.14062H69.3389C69.3545 9.76562 69.5361 10.2715 69.8838 10.6582C70.2354 11.041 70.6807 11.2324 71.2197 11.2324C71.6025 11.2324 71.9268 11.1543 72.1924 10.998C72.458 10.8418 72.6904 10.6348 72.8896 10.377L73.5518 10.8926C73.0205 11.709 72.2236 12.1172 71.1611 12.1172ZM71.0264 6.43359C70.5889 6.43359 70.2217 6.59375 69.9248 6.91406C69.6279 7.23047 69.4443 7.67578 69.374 8.25H72.5498V8.16797C72.5186 7.61719 72.3701 7.19141 72.1045 6.89062C71.8389 6.58594 71.4795 6.43359 71.0264 6.43359ZM76.0713 12H74.9873V3H76.0713V12ZM78.9893 12H77.9053V5.66016H78.9893V12ZM77.8174 3.97852C77.8174 3.80273 77.8701 3.6543 77.9756 3.5332C78.085 3.41211 78.2451 3.35156 78.4561 3.35156C78.667 3.35156 78.8271 3.41211 78.9365 3.5332C79.0459 3.6543 79.1006 3.80273 79.1006 3.97852C79.1006 4.1543 79.0459 4.30078 78.9365 4.41797C78.8271 4.53516 78.667 4.59375 78.4561 4.59375C78.2451 4.59375 78.085 4.53516 77.9756 4.41797C77.8701 4.30078 77.8174 4.1543 77.8174 3.97852ZM86.085 8.90039C86.085 9.86523 85.8643 10.6426 85.4229 11.2324C84.9814 11.8223 84.3838 12.1172 83.6299 12.1172C82.8604 12.1172 82.2549 11.873 81.8135 11.3848V14.4375H80.7295V5.66016H81.7197L81.7725 6.36328C82.2139 5.81641 82.8271 5.54297 83.6123 5.54297C84.374 5.54297 84.9756 5.83008 85.417 6.4043C85.8623 6.97852 86.085 7.77734 86.085 8.80078V8.90039ZM85.001 8.77734C85.001 8.0625 84.8486 7.49805 84.5439 7.08398C84.2393 6.66992 83.8213 6.46289 83.29 6.46289C82.6338 6.46289 82.1416 6.75391 81.8135 7.33594V10.3652C82.1377 10.9434 82.6338 11.2324 83.3018 11.2324C83.8213 11.2324 84.2334 11.0273 84.5381 10.6172C84.8467 10.2031 85.001 9.58984 85.001 8.77734ZM91.3818 12C91.3193 11.875 91.2686 11.6523 91.2295 11.332C90.7256 11.8555 90.124 12.1172 89.4248 12.1172C88.7998 12.1172 88.2861 11.9414 87.8838 11.5898C87.4854 11.2344 87.2861 10.7852 87.2861 10.2422C87.2861 9.58203 87.5361 9.07031 88.0361 8.70703C88.54 8.33984 89.2471 8.15625 90.1572 8.15625H91.2119V7.6582C91.2119 7.2793 91.0986 6.97852 90.8721 6.75586C90.6455 6.5293 90.3115 6.41602 89.8701 6.41602C89.4834 6.41602 89.1592 6.51367 88.8975 6.70898C88.6357 6.9043 88.5049 7.14062 88.5049 7.41797H87.415C87.415 7.10156 87.5264 6.79688 87.749 6.50391C87.9756 6.20703 88.2803 5.97266 88.6631 5.80078C89.0498 5.62891 89.4736 5.54297 89.9346 5.54297C90.665 5.54297 91.2373 5.72656 91.6514 6.09375C92.0654 6.45703 92.2803 6.95898 92.2959 7.59961V10.5176C92.2959 11.0996 92.3701 11.5625 92.5186 11.9062V12H91.3818ZM89.583 11.1738C89.9229 11.1738 90.2451 11.0859 90.5498 10.9102C90.8545 10.7344 91.0752 10.5059 91.2119 10.2246V8.92383H90.3623C89.0342 8.92383 88.3701 9.3125 88.3701 10.0898C88.3701 10.4297 88.4834 10.6953 88.71 10.8867C88.9365 11.0781 89.2275 11.1738 89.583 11.1738ZM93.7314 8.77734C93.7314 7.80469 93.9619 7.02344 94.4229 6.43359C94.8838 5.83984 95.4873 5.54297 96.2334 5.54297C96.9756 5.54297 97.5635 5.79688 97.9971 6.30469V3H99.0811V12H98.085L98.0322 11.3203C97.5986 11.8516 96.9951 12.1172 96.2217 12.1172C95.4873 12.1172 94.8877 11.8164 94.4229 11.2148C93.9619 10.6133 93.7314 9.82812 93.7314 8.85938V8.77734ZM94.8154 8.90039C94.8154 9.61914 94.9639 10.1816 95.2607 10.5879C95.5576 10.9941 95.9678 11.1973 96.4912 11.1973C97.1787 11.1973 97.6807 10.8887 97.9971 10.2715V7.35938C97.6729 6.76172 97.1748 6.46289 96.5029 6.46289C95.9717 6.46289 95.5576 6.66797 95.2607 7.07812C94.9639 7.48828 94.8154 8.0957 94.8154 8.90039ZM103.833 6.63281C103.669 6.60547 103.491 6.5918 103.3 6.5918C102.589 6.5918 102.106 6.89453 101.853 7.5V12H100.769V5.66016H101.823L101.841 6.39258C102.196 5.82617 102.7 5.54297 103.353 5.54297C103.563 5.54297 103.724 5.57031 103.833 5.625V6.63281ZM107.349 12.1172C106.489 12.1172 105.79 11.8359 105.251 11.2734C104.712 10.707 104.442 9.95117 104.442 9.00586V8.80664C104.442 8.17773 104.562 7.61719 104.8 7.125C105.042 6.62891 105.378 6.24219 105.808 5.96484C106.241 5.68359 106.71 5.54297 107.214 5.54297C108.038 5.54297 108.679 5.81445 109.136 6.35742C109.593 6.90039 109.821 7.67773 109.821 8.68945V9.14062H105.526C105.542 9.76562 105.724 10.2715 106.071 10.6582C106.423 11.041 106.868 11.2324 107.407 11.2324C107.79 11.2324 108.114 11.1543 108.38 10.998C108.646 10.8418 108.878 10.6348 109.077 10.377L109.739 10.8926C109.208 11.709 108.411 12.1172 107.349 12.1172ZM107.214 6.43359C106.776 6.43359 106.409 6.59375 106.112 6.91406C105.815 7.23047 105.632 7.67578 105.562 8.25H108.737V8.16797C108.706 7.61719 108.558 7.19141 108.292 6.89062C108.026 6.58594 107.667 6.43359 107.214 6.43359ZM114.995 12C114.933 11.875 114.882 11.6523 114.843 11.332C114.339 11.8555 113.737 12.1172 113.038 12.1172C112.413 12.1172 111.899 11.9414 111.497 11.5898C111.099 11.2344 110.899 10.7852 110.899 10.2422C110.899 9.58203 111.149 9.07031 111.649 8.70703C112.153 8.33984 112.86 8.15625 113.771 8.15625H114.825V7.6582C114.825 7.2793 114.712 6.97852 114.485 6.75586C114.259 6.5293 113.925 6.41602 113.483 6.41602C113.097 6.41602 112.772 6.51367 112.511 6.70898C112.249 6.9043 112.118 7.14062 112.118 7.41797H111.028C111.028 7.10156 111.14 6.79688 111.362 6.50391C111.589 6.20703 111.894 5.97266 112.276 5.80078C112.663 5.62891 113.087 5.54297 113.548 5.54297C114.278 5.54297 114.851 5.72656 115.265 6.09375C115.679 6.45703 115.894 6.95898 115.909 7.59961V10.5176C115.909 11.0996 115.983 11.5625 116.132 11.9062V12H114.995ZM113.196 11.1738C113.536 11.1738 113.858 11.0859 114.163 10.9102C114.468 10.7344 114.688 10.5059 114.825 10.2246V8.92383H113.976C112.647 8.92383 111.983 9.3125 111.983 10.0898C111.983 10.4297 112.097 10.6953 112.323 10.8867C112.55 11.0781 112.841 11.1738 113.196 11.1738ZM118.786 12H117.702V3H118.786V12ZM121.997 4.125V5.66016H123.181V6.49805H121.997V10.4297C121.997 10.6836 122.05 10.875 122.155 11.0039C122.261 11.1289 122.44 11.1914 122.694 11.1914C122.819 11.1914 122.991 11.168 123.21 11.1211V12C122.925 12.0781 122.647 12.1172 122.378 12.1172C121.894 12.1172 121.528 11.9707 121.282 11.6777C121.036 11.3848 120.913 10.9688 120.913 10.4297V6.49805H119.759V5.66016H120.913V4.125H121.997ZM126.526 10.4121L128.003 5.66016H129.163L126.614 12.9785C126.22 14.0332 125.593 14.5605 124.733 14.5605L124.528 14.543L124.124 14.4668V13.5879L124.417 13.6113C124.784 13.6113 125.069 13.5371 125.272 13.3887C125.479 13.2402 125.649 12.9688 125.782 12.5742L126.022 11.9297L123.761 5.66016H124.944L126.526 10.4121ZM129.526 11.4316C129.526 11.2441 129.581 11.0879 129.69 10.9629C129.804 10.8379 129.972 10.7754 130.194 10.7754C130.417 10.7754 130.585 10.8379 130.698 10.9629C130.815 11.0879 130.874 11.2441 130.874 11.4316C130.874 11.6113 130.815 11.7617 130.698 11.8828C130.585 12.0039 130.417 12.0645 130.194 12.0645C129.972 12.0645 129.804 12.0039 129.69 11.8828C129.581 11.7617 129.526 11.6113 129.526 11.4316ZM135.21 11.2324C135.597 11.2324 135.935 11.1152 136.224 10.8809C136.513 10.6465 136.673 10.3535 136.704 10.002H137.729C137.71 10.3652 137.585 10.7109 137.354 11.0391C137.124 11.3672 136.815 11.6289 136.429 11.8242C136.046 12.0195 135.64 12.1172 135.21 12.1172C134.347 12.1172 133.659 11.8301 133.147 11.2559C132.64 10.6777 132.386 9.88867 132.386 8.88867V8.70703C132.386 8.08984 132.499 7.54102 132.726 7.06055C132.952 6.58008 133.276 6.20703 133.698 5.94141C134.124 5.67578 134.626 5.54297 135.204 5.54297C135.915 5.54297 136.505 5.75586 136.974 6.18164C137.446 6.60742 137.698 7.16016 137.729 7.83984H136.704C136.673 7.42969 136.517 7.09375 136.235 6.83203C135.958 6.56641 135.614 6.43359 135.204 6.43359C134.653 6.43359 134.226 6.63281 133.921 7.03125C133.62 7.42578 133.47 7.99805 133.47 8.74805V8.95312C133.47 9.68359 133.62 10.2461 133.921 10.6406C134.222 11.0352 134.651 11.2324 135.21 11.2324ZM138.661 8.77148C138.661 8.15039 138.782 7.5918 139.024 7.0957C139.271 6.59961 139.61 6.2168 140.044 5.94727C140.481 5.67773 140.979 5.54297 141.538 5.54297C142.401 5.54297 143.099 5.8418 143.63 6.43945C144.165 7.03711 144.433 7.83203 144.433 8.82422V8.90039C144.433 9.51758 144.313 10.0723 144.075 10.5645C143.841 11.0527 143.503 11.4336 143.062 11.707C142.624 11.9805 142.12 12.1172 141.55 12.1172C140.69 12.1172 139.993 11.8184 139.458 11.2207C138.927 10.623 138.661 9.83203 138.661 8.84766V8.77148ZM139.751 8.90039C139.751 9.60352 139.913 10.168 140.237 10.5938C140.565 11.0195 141.003 11.2324 141.55 11.2324C142.101 11.2324 142.538 11.0176 142.862 10.5879C143.187 10.1543 143.349 9.54883 143.349 8.77148C143.349 8.07617 143.183 7.51367 142.851 7.08398C142.522 6.65039 142.085 6.43359 141.538 6.43359C141.003 6.43359 140.571 6.64648 140.243 7.07227C139.915 7.49805 139.751 8.10742 139.751 8.90039ZM146.812 5.66016L146.841 6.36328C147.306 5.81641 147.933 5.54297 148.722 5.54297C149.608 5.54297 150.212 5.88281 150.532 6.5625C150.743 6.25781 151.017 6.01172 151.353 5.82422C151.692 5.63672 152.093 5.54297 152.554 5.54297C153.944 5.54297 154.651 6.2793 154.675 7.75195V12H153.591V7.81641C153.591 7.36328 153.487 7.02539 153.28 6.80273C153.073 6.57617 152.726 6.46289 152.237 6.46289C151.835 6.46289 151.501 6.58398 151.235 6.82617C150.97 7.06445 150.815 7.38672 150.772 7.79297V12H149.683V7.8457C149.683 6.92383 149.231 6.46289 148.329 6.46289C147.618 6.46289 147.132 6.76562 146.87 7.37109V12H145.786V5.66016H146.812Z" fill="white"/>
</svg>
