<svg width="32" height="32" viewBox="0 0 32 32" fill="none" xmlns="http://www.w3.org/2000/svg">
<path d="M9.66887 23.2345L5.64348 26.6184C5.49771 26.741 5.31998 26.8193 5.1312 26.8443C4.94241 26.8693 4.75042 26.8399 4.57779 26.7595C4.40516 26.6791 4.25908 26.551 4.15673 26.3905C4.05437 26.2299 4 26.0434 4 25.853V6C4 5.73478 4.10536 5.48043 4.29289 5.29289C4.48043 5.10536 4.73478 5 5 5H27C27.2652 5 27.5196 5.10536 27.7071 5.29289C27.8946 5.48043 28 5.73478 28 6V22C28 22.2652 27.8946 22.5196 27.7071 22.7071C27.5196 22.8946 27.2652 23 27 23H10.3123C10.0769 23 9.84907 23.0831 9.66887 23.2345Z" stroke="white" stroke-width="2" stroke-linecap="round" stroke-linejoin="round"/>
<path d="M21.1973 14.9995C20.6701 15.9112 19.9124 16.6683 19.0001 17.1946C18.0879 17.7209 17.0532 17.998 16 17.998C14.9468 17.998 13.9122 17.721 12.9999 17.1947C12.0876 16.6683 11.3299 15.9113 10.8027 14.9995" stroke="white" stroke-width="2" stroke-linecap="round" stroke-linejoin="round"/>
<path d="M11.5 11.9999C12.3284 11.9999 13 11.3284 13 10.4999C13 9.67151 12.3284 8.99994 11.5 8.99994C10.6716 8.99994 10 9.67151 10 10.4999C10 11.3284 10.6716 11.9999 11.5 11.9999Z" fill="white"/>
<path d="M20.5 11.9999C21.3284 11.9999 22 11.3284 22 10.4999C22 9.67151 21.3284 8.99994 20.5 8.99994C19.6716 8.99994 19 9.67151 19 10.4999C19 11.3284 19.6716 11.9999 20.5 11.9999Z" fill="white"/>
</svg>
