<svg width="54" height="54" viewBox="0 0 54 54" fill="none" xmlns="http://www.w3.org/2000/svg">
<circle cx="27" cy="27" r="27" fill="black"/>
<path d="M20.6689 34.2345L16.6435 37.6184C16.4977 37.741 16.32 37.8193 16.1312 37.8443C15.9424 37.8693 15.7504 37.8399 15.5778 37.7595C15.4052 37.6791 15.2591 37.551 15.1567 37.3905C15.0544 37.2299 15 37.0434 15 36.853V17C15 16.7348 15.1054 16.4804 15.2929 16.2929C15.4804 16.1054 15.7348 16 16 16H38C38.2652 16 38.5196 16.1054 38.7071 16.2929C38.8946 16.4804 39 16.7348 39 17V33C39 33.2652 38.8946 33.5196 38.7071 33.7071C38.5196 33.8946 38.2652 34 38 34H21.3123C21.0769 34 20.8491 34.0831 20.6689 34.2345Z" stroke="white" stroke-width="2" stroke-linecap="round" stroke-linejoin="round"/>
<path d="M32.1973 25.9995C31.6701 26.9113 30.9124 27.6683 30.0001 28.1947C29.0879 28.721 28.0532 28.9981 27 28.9981C25.9468 28.9981 24.9122 28.721 23.9999 28.1947C23.0876 27.6684 22.3299 26.9114 21.8027 25.9996" stroke="white" stroke-width="2" stroke-linecap="round" stroke-linejoin="round"/>
<path d="M22.5 23C23.3284 23 24 22.3284 24 21.5C24 20.6716 23.3284 20 22.5 20C21.6716 20 21 20.6716 21 21.5C21 22.3284 21.6716 23 22.5 23Z" fill="white"/>
<path d="M31.5 23C32.3284 23 33 22.3284 33 21.5C33 20.6716 32.3284 20 31.5 20C30.6716 20 30 20.6716 30 21.5C30 22.3284 30.6716 23 31.5 23Z" fill="white"/>
</svg>
