<svg width="71" height="27" viewBox="0 0 71 27" fill="none" xmlns="http://www.w3.org/2000/svg">
<path d="M15.908 20H17.942V14.15C17.942 11.378 16.178 9.92 13.856 9.92C12.416 9.92 11.012 10.676 10.4 11.882C9.716 10.586 8.402 9.92 6.836 9.92C5.648 9.92 4.568 10.406 3.902 11.216V10.082H1.85V20H3.902V14.456C3.902 12.638 4.892 11.702 6.404 11.702C7.898 11.702 8.888 12.638 8.888 14.456V20H10.922V14.456C10.922 12.638 11.912 11.702 13.424 11.702C14.918 11.702 15.908 12.638 15.908 14.456V20ZM30.0031 15.032C30.0031 11.918 27.7711 9.92 24.9451 9.92C22.1191 9.92 19.8871 11.918 19.8871 15.032C19.8871 18.146 22.0291 20.162 24.8551 20.162C27.6991 20.162 30.0031 18.146 30.0031 15.032ZM21.9751 15.032C21.9751 12.782 23.3611 11.702 24.9091 11.702C26.4391 11.702 27.8971 12.782 27.8971 15.032C27.8971 17.282 26.3851 18.38 24.8551 18.38C23.3071 18.38 21.9751 17.282 21.9751 15.032ZM34.0836 14.78C34.0836 12.674 35.0196 12.044 36.5316 12.044H37.0536V9.92C35.6496 9.92 34.6596 10.532 34.0836 11.522V10.082H32.0316V20H34.0836V14.78ZM43.1158 11.648C44.6458 11.648 45.8518 12.62 45.8878 14.15H40.3978C40.6138 12.584 41.7298 11.648 43.1158 11.648ZM47.7598 17.048H45.5458C45.1678 17.822 44.4658 18.434 43.2058 18.434C41.6938 18.434 40.5238 17.444 40.3798 15.806H47.9578C48.0118 15.464 48.0298 15.14 48.0298 14.798C48.0298 11.882 46.0318 9.92 43.2058 9.92C40.2718 9.92 38.2558 11.918 38.2558 15.032C38.2558 18.146 40.3618 20.162 43.2058 20.162C45.6358 20.162 47.2018 18.776 47.7598 17.048Z" fill="#212121"/>
<path d="M58.7002 11.1L63.5002 15.9L68.3002 11.1" stroke="#212121" stroke-width="2" stroke-linecap="square"/>
</svg>
