<svg width="307" height="20" viewBox="0 0 307 20" fill="none" xmlns="http://www.w3.org/2000/svg">
<path d="M8.644 14.5H11.164V1.936H8.644V7.102H3.262V1.936H0.742V14.5H3.262V9.154H8.644V14.5ZM23.2743 9.514C23.2743 6.364 21.0243 4.366 18.1443 4.366C15.2643 4.366 13.0143 6.364 13.0143 9.514C13.0143 12.646 15.1923 14.662 18.0723 14.662C20.9703 14.662 23.2743 12.646 23.2743 9.514ZM15.5703 9.514C15.5703 7.516 16.7763 6.562 18.1083 6.562C19.4403 6.562 20.6823 7.516 20.6823 9.514C20.6823 11.494 19.4043 12.466 18.0723 12.466C16.7223 12.466 15.5703 11.494 15.5703 9.514ZM39.0729 14.5H41.5929V8.65C41.5929 5.896 39.9009 4.384 37.5069 4.384C36.0489 4.384 34.7349 5.158 34.0869 6.292C33.4029 5.05 32.1249 4.384 30.5769 4.384C29.3349 4.384 28.2729 4.906 27.6429 5.734V4.528H25.1229V14.5H27.6429V8.992C27.6429 7.408 28.5249 6.58 29.8929 6.58C31.2249 6.58 32.1069 7.408 32.1069 8.992V14.5H34.6269V8.992C34.6269 7.408 35.5089 6.58 36.8589 6.58C38.1909 6.58 39.0729 7.408 39.0729 8.992V14.5ZM48.2682 6.436C49.5642 6.436 50.6082 7.264 50.6442 8.578H45.9102C46.1082 7.21 47.0622 6.436 48.2682 6.436ZM53.0022 11.368H50.2842C49.9602 12.034 49.3662 12.574 48.2862 12.574C47.0262 12.574 46.0182 11.746 45.8922 10.27H53.1822C53.2362 9.946 53.2542 9.622 53.2542 9.298C53.2542 6.328 51.2202 4.366 48.3402 4.366C45.3882 4.366 43.3362 6.364 43.3362 9.514C43.3362 12.646 45.4422 14.662 48.3402 14.662C50.8062 14.662 52.4622 13.204 53.0022 11.368ZM62.8336 11.656C62.7616 8.002 57.2356 9.136 57.2356 7.318C57.2356 6.742 57.7216 6.364 58.6576 6.364C59.6476 6.364 60.2596 6.886 60.3316 7.66H62.7436C62.5996 5.68 61.1416 4.366 58.7296 4.366C56.2636 4.366 54.7876 5.698 54.7876 7.354C54.7876 11.008 60.4216 9.874 60.4216 11.656C60.4216 12.232 59.8816 12.682 58.8916 12.682C57.8836 12.682 57.1816 12.106 57.0916 11.35H54.5536C54.6616 13.204 56.4076 14.662 58.9096 14.662C61.3396 14.662 62.8336 13.366 62.8336 11.656ZM69.4612 14.5H72.0172V6.598H73.7632V4.528H72.0172V4.114C72.0172 2.998 72.4312 2.602 73.6552 2.638V0.514C70.8472 0.442 69.4612 1.576 69.4612 4.024V4.528H68.3272V6.598H69.4612V14.5ZM85.0263 9.514C85.0263 6.364 82.7763 4.366 79.8963 4.366C77.0163 4.366 74.7663 6.364 74.7663 9.514C74.7663 12.646 76.9443 14.662 79.8243 14.662C82.7223 14.662 85.0263 12.646 85.0263 9.514ZM77.3223 9.514C77.3223 7.516 78.5283 6.562 79.8603 6.562C81.1923 6.562 82.4343 7.516 82.4343 9.514C82.4343 11.494 81.1563 12.466 79.8243 12.466C78.4743 12.466 77.3223 11.494 77.3223 9.514ZM89.3948 9.532C89.3948 7.606 90.2948 7.03 91.7888 7.03H92.4548V4.384C91.0688 4.384 90.0248 5.05 89.3948 6.076V4.528H86.8748V14.5H89.3948V9.532ZM107.225 10.864C107.225 6.436 100.781 7.84 100.781 5.32C100.781 4.294 101.519 3.808 102.509 3.844C103.589 3.862 104.255 4.51 104.309 5.338H107.081C106.919 3.07 105.155 1.756 102.581 1.756C99.9892 1.756 98.1532 3.124 98.1532 5.392C98.1352 9.946 104.615 8.308 104.615 11.026C104.615 11.926 103.913 12.556 102.725 12.556C101.555 12.556 100.889 11.89 100.817 10.882H98.1172C98.1532 13.258 100.169 14.626 102.779 14.626C105.641 14.626 107.225 12.844 107.225 10.864ZM108.762 9.478C108.762 12.592 110.778 14.662 113.298 14.662C114.882 14.662 116.016 13.906 116.61 13.042V14.5H119.148V4.528H116.61V5.95C116.016 5.122 114.918 4.366 113.316 4.366C110.778 4.366 108.762 6.364 108.762 9.478ZM116.61 9.514C116.61 11.404 115.35 12.448 113.964 12.448C112.614 12.448 111.336 11.368 111.336 9.478C111.336 7.588 112.614 6.58 113.964 6.58C115.35 6.58 116.61 7.624 116.61 9.514ZM121.609 14.5H124.129V1.18H121.609V14.5ZM130.903 6.436C132.199 6.436 133.243 7.264 133.279 8.578H128.545C128.743 7.21 129.697 6.436 130.903 6.436ZM135.637 11.368H132.919C132.595 12.034 132.001 12.574 130.921 12.574C129.661 12.574 128.653 11.746 128.527 10.27H135.817C135.871 9.946 135.889 9.622 135.889 9.298C135.889 6.328 133.855 4.366 130.975 4.366C128.023 4.366 125.971 6.364 125.971 9.514C125.971 12.646 128.077 14.662 130.975 14.662C133.441 14.662 135.097 13.204 135.637 11.368ZM142.017 14.5H144.537V4.528H142.017V14.5ZM143.295 3.34C144.177 3.34 144.843 2.692 144.843 1.864C144.843 1.036 144.177 0.387999 143.295 0.387999C142.395 0.387999 141.747 1.036 141.747 1.864C141.747 2.692 142.395 3.34 143.295 3.34ZM154.011 14.5H156.531V8.65C156.531 5.896 154.875 4.384 152.553 4.384C151.275 4.384 150.195 4.924 149.547 5.77V4.528H147.027V14.5H149.547V8.992C149.547 7.39 150.429 6.526 151.797 6.526C153.129 6.526 154.011 7.39 154.011 8.992V14.5ZM170.219 10.792C170.219 11.854 169.499 12.448 168.275 12.448H165.737V9.064H168.221C169.445 9.064 170.219 9.712 170.219 10.792ZM169.913 5.554C169.913 6.58 169.229 7.12 168.041 7.12H165.737V3.97H168.041C169.229 3.97 169.913 4.546 169.913 5.554ZM172.775 11.098C172.775 9.622 171.767 8.308 170.345 8.056C171.569 7.66 172.487 6.706 172.487 5.176C172.487 3.304 171.029 1.936 168.401 1.936H163.217V14.5H168.635C171.245 14.5 172.775 13.096 172.775 11.098ZM179.067 6.436C180.363 6.436 181.407 7.264 181.443 8.578H176.709C176.907 7.21 177.861 6.436 179.067 6.436ZM183.801 11.368H181.083C180.759 12.034 180.165 12.574 179.085 12.574C177.825 12.574 176.817 11.746 176.691 10.27H183.981C184.035 9.946 184.053 9.622 184.053 9.298C184.053 6.328 182.019 4.366 179.139 4.366C176.187 4.366 174.135 6.364 174.135 9.514C174.135 12.646 176.241 14.662 179.139 14.662C181.605 14.662 183.261 13.204 183.801 11.368ZM184.83 4.528L188.502 14.5H191.562L195.252 4.528H192.57L190.05 12.178L187.53 4.528H184.83ZM200.952 6.436C202.248 6.436 203.292 7.264 203.328 8.578H198.594C198.792 7.21 199.746 6.436 200.952 6.436ZM205.686 11.368H202.968C202.644 12.034 202.05 12.574 200.97 12.574C199.71 12.574 198.702 11.746 198.576 10.27H205.866C205.92 9.946 205.938 9.622 205.938 9.298C205.938 6.328 203.904 4.366 201.024 4.366C198.072 4.366 196.02 6.364 196.02 9.514C196.02 12.646 198.126 14.662 201.024 14.662C203.49 14.662 205.146 13.204 205.686 11.368ZM210.297 9.532C210.297 7.606 211.197 7.03 212.691 7.03H213.357V4.384C211.971 4.384 210.927 5.05 210.297 6.076V4.528H207.777V14.5H210.297V9.532ZM215.055 14.5H217.575V1.18H215.055V14.5ZM224.312 11.494L221.738 4.528H218.912L222.908 14.248L220.748 19.216H223.43L229.604 4.528H226.922L224.312 11.494ZM243.154 14.5H245.674V1.936H243.154V7.102H237.772V1.936H235.252V14.5H237.772V9.154H243.154V14.5ZM248.154 14.5H250.674V4.528H248.154V14.5ZM249.432 3.34C250.314 3.34 250.98 2.692 250.98 1.864C250.98 1.036 250.314 0.387999 249.432 0.387999C248.532 0.387999 247.884 1.036 247.884 1.864C247.884 2.692 248.532 3.34 249.432 3.34ZM253.164 14.5H255.684V1.18H253.164V14.5ZM258.174 14.5H260.694V1.18H258.174V14.5ZM270.923 11.656C270.851 8.002 265.325 9.136 265.325 7.318C265.325 6.742 265.811 6.364 266.747 6.364C267.737 6.364 268.349 6.886 268.421 7.66H270.833C270.689 5.68 269.231 4.366 266.819 4.366C264.353 4.366 262.877 5.698 262.877 7.354C262.877 11.008 268.511 9.874 268.511 11.656C268.511 12.232 267.971 12.682 266.981 12.682C265.973 12.682 265.271 12.106 265.181 11.35H262.643C262.751 13.204 264.497 14.662 266.999 14.662C269.429 14.662 270.923 13.366 270.923 11.656Z" fill="#212121"/>
<path d="M298.5 -6.99382e-07L297.09 1.41L302.67 7L282.5 7L282.5 9L302.67 9L297.08 14.58L298.5 16L306.5 8L298.5 -6.99382e-07Z" fill="#212121"/>
</svg>
