<svg width="105" height="98" viewBox="0 0 105 98" fill="none" xmlns="http://www.w3.org/2000/svg">
<path d="M69.4699 13.4146L69.4057 10.6547L66.7741 12.1951L63.3723 14.249L58.8152 10.1412L57.018 8.47237L54.9641 9.69188L53.2311 10.7188L50.407 12.4518L51.1772 13.1579L53.2953 15.0834L56.7613 18.2285L53.3595 20.2824L50.7279 21.887L50.5353 21.6944L48.0321 19.3838L42.5764 14.4416L39.5597 11.7458L35.0668 7.70215L35.1951 13.4788C27.8139 17.1373 23 23.1065 23 29.8459C23 40.9499 36.2221 50 52.4609 50C68.6997 50 81.9218 40.9499 81.9218 29.8459C81.8576 23.0423 76.9795 17.0731 69.4699 13.4146ZM52.4609 46.4698C38.1476 46.4698 26.5302 38.9602 26.5302 29.7817C26.5302 24.8395 29.932 20.3466 35.3235 17.2657L35.5161 27.1502L51.2414 41.3992L57.2748 37.7407L57.018 28.3055L57.4031 28.0487L63.7574 33.8254L69.7908 30.1668L69.5341 17.3299C74.9256 20.4108 78.3916 24.8395 78.3916 29.8459C78.3916 39.0244 66.7741 46.4698 52.4609 46.4698Z" fill="#B69142"/>
<path d="M47.6475 0L47.84 8.27984L53.1674 5.00642L47.6475 0Z" fill="#B69142"/>
<path d="M0 87.9512H0.770217L2.05391 92.765L3.46598 87.9512H4.2362L5.64827 92.765L6.99615 87.9512H7.70219L6.03338 93.7278H5.26316L3.85109 88.8498L2.43902 93.7278H1.66881L0 87.9512Z" fill="#B69142"/>
<path d="M8.47266 87.9512H9.17869V90.3902H12.2596V87.9512H12.9656V93.7278H12.2596V91.0321H9.17869V93.7278H8.47266V87.9512Z" fill="#B69142"/>
<path d="M14.3779 87.9512H18.0365V88.593H15.084V90.3902H17.8439V91.0321H15.084V93.086H18.1648V93.7278H14.3779V87.9512Z" fill="#B69142"/>
<path d="M19.1911 87.9512H20.6674C20.9241 87.9512 21.2451 87.9512 21.5018 88.0154C21.7585 88.0795 22.0153 88.1437 22.2078 88.2079C22.4004 88.3363 22.5929 88.4646 22.7213 88.6572C22.8497 88.8498 22.9139 89.1707 22.9139 89.4916C22.9139 89.9409 22.7855 90.2618 22.5287 90.5186C22.272 90.7753 21.9511 90.9679 21.4376 91.032L23.1064 93.6636H22.272L20.7316 91.0962H19.833V93.6636H19.127V87.9512H19.1911ZM19.8972 90.5186H20.539C20.7316 90.5186 20.9241 90.5186 21.1167 90.5186C21.3092 90.5186 21.5018 90.4544 21.6943 90.3902C21.8869 90.326 22.0153 90.2618 22.1436 90.1335C22.272 90.0051 22.3362 89.8125 22.3362 89.5558C22.3362 89.3632 22.272 89.1707 22.2078 89.0423C22.1436 88.9139 22.0153 88.8498 21.8869 88.7214C21.7585 88.6572 21.6302 88.593 21.4376 88.593C21.245 88.593 21.1167 88.5288 20.9241 88.5288H19.9613V90.5186H19.8972Z" fill="#B69142"/>
<path d="M24.1982 87.9512H27.8568V88.593H24.9043V90.3902H27.6642V91.0321H24.9043V93.086H27.9852V93.7278H24.1982V87.9512Z" fill="#B69142"/>
<path d="M35.3656 89.1709C35.173 88.9141 34.9804 88.7858 34.7237 88.6574C34.467 88.529 34.2102 88.4648 33.9535 88.4648C33.6326 88.4648 33.3116 88.529 33.0549 88.6574C32.7982 88.7858 32.5414 88.9783 32.3489 89.1709C32.1563 89.3634 32.0279 89.6202 31.8996 89.9411C31.7712 90.262 31.707 90.5188 31.707 90.8397C31.707 91.1606 31.7712 91.4815 31.8996 91.8025C32.0279 92.1234 32.1563 92.3159 32.3489 92.5727C32.5414 92.7652 32.7982 92.9578 33.0549 93.0862C33.3116 93.2145 33.6326 93.2787 33.9535 93.2787C34.2744 93.2787 34.5953 93.2145 34.9163 93.0862C35.173 92.9578 35.4297 92.7652 35.6223 92.5085L36.1358 92.9578C35.879 93.2787 35.5581 93.5355 35.173 93.728C34.7879 93.9206 34.4028 93.9847 33.9535 93.9847C33.5684 93.9847 33.1833 93.9206 32.7982 93.728C32.413 93.5996 32.1563 93.3429 31.8354 93.0862C31.5786 92.8294 31.3861 92.5085 31.1935 92.1234C31.0652 91.7383 31.001 91.3532 31.001 90.9039C31.001 90.4546 31.0652 90.0695 31.1935 89.6844C31.3219 89.2993 31.5145 88.9783 31.7712 88.7216C32.0279 88.4648 32.3489 88.2081 32.6698 88.0797C32.9907 87.9514 33.44 87.823 33.8251 87.823C34.2102 87.823 34.5953 87.8872 34.9804 88.0156C35.3656 88.1439 35.6223 88.4007 35.879 88.7216L35.3656 89.1709Z" fill="#B69142"/>
<path d="M38.8958 87.9512H39.5376L41.9766 93.7278H41.2064L40.6288 92.3158H37.7405L37.1628 93.7278H36.3926L38.8958 87.9512ZM39.2167 88.8498L37.9972 91.6739H40.372L39.2167 88.8498Z" fill="#B69142"/>
<path d="M42.7471 87.9512H43.5815L46.9191 92.765V87.9512H47.6251V93.7278H46.7907L43.4531 88.9139V93.7278H42.7471V87.9512Z" fill="#B69142"/>
<path d="M50.7061 87.9512H51.4763L52.76 92.765L54.172 87.9512H54.9422L56.3543 92.765L57.7022 87.9512H58.4082L56.7394 93.7278H55.9692L54.5571 88.8498L53.1451 93.7278H52.3749L50.7061 87.9512Z" fill="#B69142"/>
<path d="M59.2432 87.9512H62.9017V88.593H59.9492V90.3902H62.7091V91.0321H59.9492V93.086H63.0301V93.7278H59.2432V87.9512Z" fill="#B69142"/>
<path d="M70.2183 88.593H68.2927V93.7278H67.5867V88.593H65.6611V87.9512H70.1541V88.593H70.2183Z" fill="#B69142"/>
<path d="M72.1438 87.9512H72.7857L75.2247 93.7278H74.4545L73.8768 92.3158H70.9885L70.4108 93.7278H69.6406L72.1438 87.9512ZM72.4648 88.8498L71.2452 91.6739H73.6201L72.4648 88.8498Z" fill="#B69142"/>
<path d="M75.9951 87.9512H76.7012V90.4544H76.8295L79.4611 87.9512H80.4239L77.5997 90.5828L80.6164 93.7278H79.5895L76.8295 90.7753H76.7012V93.7278H75.9951V87.9512Z" fill="#B69142"/>
<path d="M81.1299 87.9512H84.7884V88.593H81.8359V90.3902H84.5959V91.0321H81.8359V93.086H84.9168V93.7278H81.1299V87.9512Z" fill="#B69142"/>
<path d="M89.6022 91.2246L87.4199 87.9512H88.3185L89.9231 90.5828L91.592 87.9512H92.4264L90.2441 91.2246V93.7278H89.538V91.2246H89.6022Z" fill="#B69142"/>
<path d="M95.7638 93.8563C95.3145 93.8563 94.9294 93.7921 94.5443 93.5996C94.1591 93.407 93.8382 93.2145 93.5815 92.9577C93.3247 92.701 93.1322 92.3801 92.9396 91.995C92.8113 91.6099 92.7471 91.2247 92.7471 90.7755C92.7471 90.3262 92.8113 89.941 92.9396 89.5559C93.068 89.1708 93.3247 88.8499 93.5815 88.5932C93.8382 88.3364 94.1591 88.1439 94.5443 87.9513C94.9294 87.823 95.3145 87.6946 95.7638 87.6946C96.2131 87.6946 96.5982 87.7588 96.9833 87.9513C97.3684 88.0797 97.6893 88.3364 97.9461 88.5932C98.2028 88.8499 98.3954 89.1708 98.5879 89.5559C98.7163 89.941 98.7805 90.3262 98.7805 90.7755C98.7805 91.2247 98.7163 91.6099 98.5879 91.995C98.4595 92.3801 98.2028 92.701 97.9461 92.9577C97.6893 93.2145 97.3684 93.407 96.9833 93.5996C96.5982 93.7921 96.2131 93.8563 95.7638 93.8563ZM95.7638 93.2145C96.0847 93.2145 96.4056 93.1503 96.6624 93.0219C96.9191 92.8936 97.1758 92.701 97.3684 92.5084C97.561 92.3159 97.7535 92.0591 97.8177 91.7382C98.0103 91.4815 98.0103 91.1606 98.0103 90.8396C98.0103 90.5187 97.9461 90.1978 97.8177 89.8769C97.6893 89.5559 97.561 89.3634 97.3684 89.1066C97.1758 88.9141 96.9191 88.7215 96.6624 88.5932C96.4056 88.4648 96.0847 88.4006 95.7638 88.4006C95.4428 88.4006 95.1219 88.4648 94.8652 88.5932C94.6084 88.7215 94.3517 88.9141 94.1591 89.1066C93.9666 89.2992 93.774 89.5559 93.7098 89.8769C93.5815 90.1978 93.5173 90.4545 93.5173 90.8396C93.5173 91.1606 93.5815 91.4815 93.7098 91.8024C93.8382 92.1233 93.9666 92.3159 94.1591 92.5726C94.3517 92.7652 94.6084 92.9577 94.8652 93.0861C95.1219 93.1503 95.4428 93.2145 95.7638 93.2145Z" fill="#B69142"/>
<path d="M104.172 91.5455C104.172 91.8664 104.108 92.1874 104.044 92.4441C103.98 92.7008 103.851 92.9576 103.659 93.2143C103.466 93.4069 103.274 93.5994 103.017 93.7278C102.76 93.8562 102.375 93.9204 101.99 93.9204C101.605 93.9204 101.284 93.8562 100.963 93.7278C100.642 93.5994 100.449 93.4069 100.321 93.2143C100.129 93.0218 100 92.765 99.936 92.4441C99.8718 92.1874 99.8076 91.8664 99.8076 91.5455V87.9512H100.514V91.4172C100.514 91.6739 100.514 91.8664 100.578 92.1232C100.642 92.3157 100.706 92.5083 100.835 92.7008C100.963 92.8934 101.091 93.0218 101.284 93.086C101.476 93.2143 101.733 93.2143 101.99 93.2143C102.247 93.2143 102.503 93.1501 102.696 93.086C102.888 92.9576 103.017 92.8292 103.145 92.7008C103.274 92.5083 103.338 92.3157 103.402 92.1232C103.466 91.9306 103.466 91.6739 103.466 91.4172V87.9512H104.172V91.5455Z" fill="#B69142"/>
<path d="M19.371 72.4826H12.8883V66.5776H10V81.1476H12.8883V75.2426H19.371V81.1476H22.2593V66.5776H19.371V72.4826Z" fill="#B69142"/>
<path d="M28.87 75.2426H35.1602V72.4826H28.87V69.4018H35.9304V66.5776H26.0459V81.1476H36.2513V78.3877H28.87V75.2426Z" fill="#B69142"/>
<path d="M42.0924 66.5776H39.2041V81.1476H48.9602V78.3877H42.0924V66.5776Z" fill="#B69142"/>
<path d="M54.8014 66.5776H51.9131V81.1476H54.8014V66.5776Z" fill="#B69142"/>
<path d="M68.537 71.5199C68.537 70.4929 68.3445 69.6585 67.8952 68.8883C67.4459 68.1823 66.804 67.6046 65.9696 67.1553C65.1352 66.7702 64.1082 66.5776 62.8887 66.5776H58.46V81.1476H61.3483V76.5263H63.4022C64.365 76.5263 65.1352 76.3979 65.7771 76.077C66.4189 75.7561 66.9324 75.371 67.3175 74.9217C67.7026 74.4724 67.9593 73.8947 68.1519 73.3171C68.4728 72.6752 68.537 72.0975 68.537 71.5199ZM65.5845 72.2259C65.5203 72.4826 65.3919 72.7394 65.1994 72.9319C65.0068 73.1887 64.8143 73.3812 64.4934 73.5096C64.1724 73.638 63.8515 73.7663 63.4022 73.7663H61.3483V69.4018H63.4022C63.9157 69.4018 64.3008 69.466 64.6217 69.6585C64.9426 69.8511 65.1352 70.0436 65.2636 70.3004C65.3919 70.5571 65.5203 70.8138 65.5203 71.0706C65.5845 71.3273 65.5845 71.5199 65.5845 71.6482C65.6487 71.7766 65.6487 71.9692 65.5845 72.2259Z" fill="#B69142"/>
<path d="M74.5703 66L68.0234 81.1476H70.8476L72.0029 78.3235H76.8167L77.9721 81.1476H81.3097L74.7628 66H74.5703ZM73.0298 75.8845L74.5061 72.3543L75.9182 75.8845H73.0298Z" fill="#B69142"/>
<path d="M94.4677 71.4557C94.1467 70.5571 93.6975 69.7227 93.1198 69.0167C92.4779 68.3107 91.6435 67.733 90.6166 67.2837C89.5896 66.8344 88.3701 66.6418 86.8939 66.6418H82.5293V81.2118H87.5999C88.5627 81.2118 89.5254 81.0193 90.424 80.6983C91.3226 80.3774 92.0928 79.9281 92.7347 79.2863C93.3765 78.6444 93.9542 77.9384 94.3393 77.0398C94.7244 76.2054 94.917 75.1784 94.917 74.1515C94.917 73.2529 94.7244 72.3543 94.4677 71.4557ZM91.5794 75.8845C91.3226 76.4621 91.0017 76.9114 90.6166 77.2965C90.1673 77.6816 89.6538 77.9384 89.0761 78.1309C88.4985 78.3235 87.7924 78.3877 87.0864 78.3877H85.3534V69.3376H87.6641C87.985 69.3376 88.3701 69.4018 88.8836 69.5302C89.3971 69.6585 89.8464 69.9153 90.2957 70.2362C90.7449 70.5571 91.1301 71.0064 91.451 71.6483C91.7719 72.2259 91.9003 72.9961 91.9003 73.9589C91.9003 74.665 91.8361 75.3068 91.5794 75.8845Z" fill="#B69142"/>
</svg>
