<svg width="52" height="57" viewBox="0 0 52 57" fill="none" xmlns="http://www.w3.org/2000/svg">
<g opacity="0.7">
<path d="M1 30.5L26 55.5L51 30.5" stroke="white"/>
<path d="M10.8598 10.576C10.8598 7.624 6.56378 8.56 6.56378 6.88C6.56378 6.196 7.05578 5.872 7.71578 5.896C8.43578 5.908 8.87978 6.34 8.91578 6.892H10.7638C10.6558 5.38 9.47978 4.504 7.76378 4.504C6.03578 4.504 4.81178 5.416 4.81178 6.928C4.79978 9.964 9.11978 8.872 9.11978 10.684C9.11978 11.284 8.65178 11.704 7.85978 11.704C7.07978 11.704 6.63578 11.26 6.58778 10.588H4.78778C4.81178 12.172 6.15578 13.084 7.89578 13.084C9.80378 13.084 10.8598 11.896 10.8598 10.576ZM11.9083 8.8C11.9083 11.308 13.7443 13.072 16.1563 13.072C18.0163 13.072 19.5283 12.088 20.0923 10.36H18.1603C17.7643 11.176 17.0443 11.572 16.1443 11.572C14.6803 11.572 13.6363 10.492 13.6363 8.8C13.6363 7.096 14.6803 6.028 16.1443 6.028C17.0443 6.028 17.7643 6.424 18.1603 7.228H20.0923C19.5283 5.512 18.0163 4.516 16.1563 4.516C13.7443 4.516 11.9083 6.292 11.9083 8.8ZM25.9672 7.228C25.9672 7.984 25.5472 8.476 24.6112 8.476H23.2072V6.016H24.6112C25.5472 6.016 25.9672 6.484 25.9672 7.228ZM21.5272 4.624V13H23.2072V9.736H23.9992L25.8472 13H27.7912L25.7872 9.604C27.1312 9.244 27.6952 8.212 27.6952 7.192C27.6952 5.788 26.6872 4.624 24.6712 4.624H21.5272ZM37.3867 8.788C37.3867 6.28 35.4907 4.504 33.1027 4.504C30.7387 4.504 28.8067 6.28 28.8067 8.788C28.8067 11.308 30.7387 13.084 33.1027 13.084C35.4787 13.084 37.3867 11.308 37.3867 8.788ZM30.5347 8.788C30.5347 7.084 31.5787 6.016 33.1027 6.016C34.6147 6.016 35.6587 7.084 35.6587 8.788C35.6587 10.492 34.6147 11.584 33.1027 11.584C31.5787 11.584 30.5347 10.492 30.5347 8.788ZM38.6366 4.624V13H43.0766V11.668H40.3166V4.624H38.6366ZM44.1444 4.624V13H48.5844V11.668H45.8244V4.624H44.1444Z" fill="white"/>
</g>
</svg>
