<svg width="204" height="80" viewBox="0 0 204 80" fill="none" xmlns="http://www.w3.org/2000/svg">
<g clip-path="url(#clip0)">
<path d="M143.259 42.6217C144.178 42.6217 144.923 41.8764 144.923 40.9571C144.923 40.0377 144.178 39.2925 143.259 39.2925C142.34 39.2925 141.595 40.0377 141.595 40.9571C141.595 41.8764 142.34 42.6217 143.259 42.6217Z" fill="white"/>
<path d="M143.259 38.044C144.178 38.044 144.923 37.2988 144.923 36.3794C144.923 35.4601 144.178 34.7148 143.259 34.7148C142.34 34.7148 141.595 35.4601 141.595 36.3794C141.595 37.2988 142.34 38.044 143.259 38.044Z" fill="white"/>
<path d="M143.259 33.4664C144.178 33.4664 144.923 32.7211 144.923 31.8018C144.923 30.8825 144.178 30.1372 143.259 30.1372C142.34 30.1372 141.595 30.8825 141.595 31.8018C141.595 32.7211 142.34 33.4664 143.259 33.4664Z" fill="white"/>
<path d="M192.143 77.9189C193.052 77.7034 193.87 77.2049 194.478 76.4952C195.086 75.7855 195.453 74.9013 195.526 73.9697C196.84 73.9005 198.077 73.3303 198.983 72.3765C199.888 71.4228 200.394 70.1581 200.395 68.8428V67.8856C200.393 66.5492 199.87 65.2663 198.938 64.3085C198.006 63.3508 196.737 62.7935 195.402 62.7546L194.944 61.839L193.358 58.8053C193.175 58.4225 191.665 55.5927 187.532 55.447H176.567C174.642 55.5275 172.805 56.2766 171.373 57.5652L167.324 60.9568C166.224 61.6932 165.074 62.3523 163.883 62.9293C162.11 63.1665 160.553 63.5244 160.279 63.5868C157.278 64.0987 155.343 66.1586 155.343 68.8428C155.344 70.1322 155.829 71.3744 156.702 72.3231C157.576 73.2719 158.773 73.8581 160.058 73.9655C160.129 74.8988 160.496 75.7852 161.104 76.4967C161.712 77.2081 162.531 77.7077 163.442 77.9231H144.299V61.8973H151.943L154.532 58.9843L151.943 56.0713H144.299V46.837H148.252V25.9257H138.265V46.837H142.218V49.4129H133.325L130.737 52.3259L133.325 55.239H142.218V77.9189H112.88V63.9489C121.315 63.5619 125.26 58.7138 125.26 48.7887C125.26 37.0992 119.476 24.028 111.735 24.028C103.995 24.028 98.2106 37.0992 98.2106 48.7887C98.2106 58.7762 102.218 63.6368 110.799 63.9614V77.9189H93.841V37.5528H81.7728V25.3639L63.9118 -0.0209961L44.6816 25.3223V46.2918H33.067V77.9189H15.0853V66.425C18.5784 66.156 21.8316 64.5444 24.1621 61.9285C26.4926 59.3125 27.7193 55.8956 27.5847 52.3947C27.4501 48.8938 25.9647 45.5811 23.4402 43.1519C20.9157 40.7226 17.5484 39.3656 14.0449 39.3656C10.5415 39.3656 7.17417 40.7226 4.6497 43.1519C2.12522 45.5811 0.639823 48.8938 0.505223 52.3947C0.370622 55.8956 1.59728 59.3125 3.92778 61.9285C6.25828 64.5444 9.51144 66.156 13.0046 66.425V77.9189H0V79.9996H35.1477V48.3726H44.6816V79.9996H58.4686V46.2918H46.7624V26.0422L63.8244 3.52455L79.6712 26.0214V37.5528H68.6642V79.9996H81.7728V39.6335H91.7603V79.9996H203.496V77.9189H192.143ZM140.345 28.0064H146.171V44.7563H140.345V28.0064ZM151.011 58.152L151.752 58.9843L151.011 59.8166H144.299V58.152H151.011ZM134.257 53.1582L133.516 52.3259L134.257 51.4937H142.218V53.1582H134.257ZM100.291 48.7887C100.291 37.1366 105.851 26.1088 111.735 26.1088C117.62 26.1088 123.179 37.1325 123.179 48.7887C123.179 55.0309 121.931 61.3729 112.88 61.864V55.2639L117.578 50.5657L116.105 49.0925L112.88 52.3259V43.5869H110.799V52.3259L107.574 49.0967L106.117 50.5657L110.816 55.2639V61.8973C105.456 61.6934 100.291 59.7042 100.291 48.7887ZM2.49688 52.9502C2.49671 50.7355 3.13914 48.5684 4.34626 46.7116C5.55338 44.8549 7.27332 43.3882 9.29749 42.4896C11.3217 41.591 13.5631 41.2991 15.7499 41.6491C17.9367 41.9992 19.975 42.9763 21.6175 44.4619C23.26 45.9474 24.4361 47.8777 25.0033 50.0185C25.5705 52.1593 25.5043 54.4187 24.8128 56.5226C24.1212 58.6265 22.8341 60.4846 21.1075 61.8715C19.3808 63.2583 17.2889 64.1144 15.0853 64.3359V59.4254L19.7836 54.7271L18.3104 53.2539L15.0853 56.4874V47.7483H13.0046V56.4874L9.77944 53.2581L8.32293 54.7271L13.0212 59.4254V64.3526C10.1568 64.1178 7.48514 62.8153 5.53584 60.7034C3.58653 58.5914 2.50188 55.8242 2.49688 52.9502ZM56.3878 48.3726V77.9189H46.7624V48.3726H56.3878ZM79.6921 77.9189H70.7449V39.6335H79.6921V77.9189ZM191.124 75.963C190.661 75.963 190.209 75.8258 189.824 75.5689C189.44 75.3119 189.14 74.9466 188.963 74.5193C188.786 74.0919 188.74 73.6217 188.83 73.168C188.92 72.7143 189.143 72.2976 189.47 71.9705C189.797 71.6435 190.214 71.4207 190.667 71.3305C191.121 71.2402 191.591 71.2865 192.019 71.4636C192.446 71.6406 192.811 71.9403 193.068 72.3249C193.325 72.7095 193.462 73.1617 193.462 73.6243C193.461 74.2442 193.214 74.8384 192.776 75.2768C192.338 75.7151 191.744 75.9619 191.124 75.963ZM191.465 59.7L193.05 62.7296H182.871V57.5278H187.449C190.445 57.6318 191.427 59.6251 191.465 59.7ZM172.738 59.1424L172.78 59.1049C173.831 58.1659 175.168 57.61 176.575 57.5278H180.799V62.7296H168.398L168.535 62.638L172.738 59.1424ZM160.391 71.8848C159.706 71.866 159.046 71.6181 158.518 71.1806C157.99 70.7431 157.624 70.1412 157.478 69.4711H160.029V67.3904H157.769C158.265 66.4832 159.263 65.8507 160.641 65.6218H160.712C162.406 65.2329 164.126 64.9686 165.859 64.8311C166.055 64.8311 166.671 64.8311 167.033 64.8311H195.239C196.051 64.8311 196.829 65.1532 197.404 65.7267C197.978 66.3002 198.301 67.0782 198.302 67.8898V68.8469C198.301 69.6585 197.978 70.4365 197.404 71.01C196.829 71.5835 196.051 71.9056 195.239 71.9056V72.0637C194.928 71.2381 194.375 70.5248 193.654 70.0159C192.933 69.5071 192.076 69.226 191.194 69.2089C190.311 69.1919 189.444 69.4397 188.704 69.9204C187.964 70.4011 187.385 71.0926 187.041 71.9056H168.539C168.201 71.106 167.634 70.4238 166.911 69.9442C166.187 69.4646 165.338 69.2088 164.469 69.2088C163.601 69.2088 162.752 69.4646 162.028 69.9442C161.304 70.4238 160.738 71.106 160.4 71.9056L160.391 71.8848ZM162.122 73.6118C162.122 73.1492 162.26 72.6971 162.517 72.3125C162.773 71.9279 163.139 71.6281 163.566 71.4511C163.993 71.2741 164.464 71.2278 164.917 71.318C165.371 71.4082 165.788 71.631 166.115 71.9581C166.442 72.2851 166.665 72.7019 166.755 73.1555C166.845 73.6092 166.799 74.0794 166.622 74.5068C166.445 74.9341 166.145 75.2994 165.76 75.5564C165.376 75.8134 164.924 75.9505 164.461 75.9505C163.843 75.9505 163.25 75.7059 162.812 75.27C162.374 74.8341 162.126 74.2424 162.122 73.6243V73.6118ZM168.86 73.9697H186.725C186.8 74.8987 187.167 75.7801 187.775 76.4873C188.382 77.1946 189.197 77.6914 190.104 77.9064H165.481C166.388 77.6911 167.204 77.1938 167.811 76.4857C168.418 75.7776 168.786 74.8953 168.86 73.9655V73.9697Z" fill="white"/>
<path d="M56.1795 26.5254H53.6826V32.3514H56.1795V26.5254Z" fill="white"/>
<path d="M64.9187 26.5254H62.4219V32.3514H64.9187V26.5254Z" fill="white"/>
<path d="M73.6575 26.5254H71.1611V32.3514H73.6575V26.5254Z" fill="white"/>
<path d="M90.3039 48.5811H86.5586V52.3264H90.3039V48.5811Z" fill="white"/>
<path d="M86.9748 56.4878H83.2295V60.2331H86.9748V56.4878Z" fill="white"/>
<path d="M90.3039 64.3945H86.5586V68.1399H90.3039V64.3945Z" fill="white"/>
<path d="M42.6425 53.7827H37.3408V55.8634H42.6425V53.7827Z" fill="white"/>
<path d="M42.6425 62.522H37.3408V64.6027H42.6425V62.522Z" fill="white"/>
<path d="M42.6425 59.6089H37.3408V61.6896H42.6425V59.6089Z" fill="white"/>
<path d="M42.6425 56.6958H37.3408V58.7765H42.6425V56.6958Z" fill="white"/>
</g>
<defs>
<clipPath id="clip0">
<rect width="203.496" height="80" fill="white"/>
</clipPath>
</defs>
</svg>
