<svg width="127" height="27" viewBox="0 0 127 27" fill="none" xmlns="http://www.w3.org/2000/svg">
<path d="M3.762 15.032C3.762 13.106 4.662 12.53 6.156 12.53H6.822V9.884C5.436 9.884 4.392 10.55 3.762 11.576V10.028H1.242V20H3.762V15.032ZM12.8033 11.936C14.0993 11.936 15.1433 12.764 15.1793 14.078H10.4453C10.6433 12.71 11.5973 11.936 12.8033 11.936ZM17.5373 16.868H14.8193C14.4953 17.534 13.9013 18.074 12.8213 18.074C11.5613 18.074 10.5533 17.246 10.4273 15.77H17.7173C17.7713 15.446 17.7893 15.122 17.7893 14.798C17.7893 11.828 15.7553 9.866 12.8753 9.866C9.92334 9.866 7.87134 11.864 7.87134 15.014C7.87134 18.146 9.97734 20.162 12.8753 20.162C15.3413 20.162 16.9973 18.704 17.5373 16.868ZM18.9807 14.978C18.9807 18.092 20.9967 20.162 23.5167 20.162C25.1007 20.162 26.2347 19.406 26.8287 18.542V20H29.3667V10.028H26.8287V11.45C26.2347 10.622 25.1367 9.866 23.5347 9.866C20.9967 9.866 18.9807 11.864 18.9807 14.978ZM26.8287 15.014C26.8287 16.904 25.5687 17.948 24.1827 17.948C22.8327 17.948 21.5547 16.868 21.5547 14.978C21.5547 13.088 22.8327 12.08 24.1827 12.08C25.5687 12.08 26.8287 13.124 26.8287 15.014ZM31.1799 14.978C31.1799 18.092 33.1959 20.162 35.7339 20.162C37.2999 20.162 38.4159 19.442 39.0099 18.524V20H41.5659V6.68H39.0099V11.414C38.3259 10.478 37.0659 9.866 35.7519 9.866C33.1959 9.866 31.1799 11.864 31.1799 14.978ZM39.0279 15.014C39.0279 16.904 37.7679 17.948 36.3819 17.948C35.0319 17.948 33.7539 16.868 33.7539 14.978C33.7539 13.088 35.0319 12.08 36.3819 12.08C37.7679 12.08 39.0279 13.124 39.0279 15.014ZM62.2662 20H64.7862V14.15C64.7862 11.396 63.0942 9.884 60.7002 9.884C59.2422 9.884 57.9282 10.658 57.2802 11.792C56.5962 10.55 55.3182 9.884 53.7702 9.884C52.5282 9.884 51.4662 10.406 50.8362 11.234V10.028H48.3162V20H50.8362V14.492C50.8362 12.908 51.7182 12.08 53.0862 12.08C54.4182 12.08 55.3002 12.908 55.3002 14.492V20H57.8202V14.492C57.8202 12.908 58.7022 12.08 60.0522 12.08C61.3842 12.08 62.2662 12.908 62.2662 14.492V20ZM76.8075 15.014C76.8075 11.864 74.5575 9.866 71.6775 9.866C68.7975 9.866 66.5475 11.864 66.5475 15.014C66.5475 18.146 68.7255 20.162 71.6055 20.162C74.5035 20.162 76.8075 18.146 76.8075 15.014ZM69.1035 15.014C69.1035 13.016 70.3095 12.062 71.6415 12.062C72.9735 12.062 74.2155 13.016 74.2155 15.014C74.2155 16.994 72.9375 17.966 71.6055 17.966C70.2555 17.966 69.1035 16.994 69.1035 15.014ZM81.1761 15.032C81.1761 13.106 82.0761 12.53 83.5701 12.53H84.2361V9.884C82.8501 9.884 81.8061 10.55 81.1761 11.576V10.028H78.6561V20H81.1761V15.032ZM90.2174 11.936C91.5134 11.936 92.5574 12.764 92.5934 14.078H87.8594C88.0574 12.71 89.0114 11.936 90.2174 11.936ZM94.9514 16.868H92.2334C91.9094 17.534 91.3154 18.074 90.2354 18.074C88.9754 18.074 87.9674 17.246 87.8414 15.77H95.1314C95.1854 15.446 95.2034 15.122 95.2034 14.798C95.2034 11.828 93.1694 9.866 90.2894 9.866C87.3374 9.866 85.2854 11.864 85.2854 15.014C85.2854 18.146 87.3914 20.162 90.2894 20.162C92.7554 20.162 94.4114 18.704 94.9514 16.868Z" fill="#B69142"/>
<path d="M119 5L117.59 6.41L123.17 12L103 12L103 14L123.17 14L117.58 19.58L119 21L127 13L119 5Z" fill="#B69142"/>
</svg>
